<svg xmlns="http://www.w3.org/2000/svg" viewBox="0 0 300 300"><g fill="none" stroke-width="2"><path stroke="#878787" d="m300 64.3-.6 2.9q0 .4 0 0-.2-2.9-1.1-5.5l-1-2.8q-2.7-8.3-5.6-16.4-2-5.8-3.8-12.2l-3.5-12.2q-1.3-4.7-3.2-8.6-1.8-3.8-4-5-3.1-1.6-7.3-.3-10.8 3.5-15.2 5.2-1.7.7-2.8 1.4l-2.6 1.5q-8.8 4.2-16.7 9.8-4.8 3.3-11.2 9.4l-10.7 10q-12.5 11-20.4 20.6a1.4 1.4-76.3 0 1-.8.5q-6.2 1.2-11.3.9-2.5-.2-4.5.3l-2.5.7q-18.3 3.4-35.1 11.5-.9.4-3.4 1.1-1.4.4-3.3 1.3-8.4 4.2-14.5 8-4 2.5-6.7 3.2-6.4 1.4-12.7-.2-1.7-.4-4.6-.8-2-.2-4.7-.8-7.5-1.8-19.4-2.6-20.6-1.4-41 .3m-6.1.8q-2.6-.2-5.3.2h-3.3q-2.6 0-3.4 3-1.9 7-1.1 14.5.3 3 2.7 14.1 1.8 8.8 4.6 17.3l2.3 8.3q1.1 4.1 3.1 8 5.5 10.7 11.8 21l5 8.8q4 6.8 8 11.6 3.5 4 5.3 8.3 1.2 2.8 1.6 9 1 14.8 5.4 29 1.4 4.2 4.4 10.8l4.7 10.8q1.6 4 4.3 7.5" vector-effect="non-scaling-stroke"/><path stroke="#646464" d="m69.8 268.5-.3.6a1.4 1-2.2 0 1-.7.6q-4.3 1.4-8.8 2.5-1.4.4-2.2 1.5a.4.4-64.1 0 0 .1.6q2.2.6 4.2.2l3.3-.7q3.5-.5 6.9-1.6" vector-effect="non-scaling-stroke"/><path stroke="#878787" d="m72.3 272.2 8 7 .8.6q1.7 1.2-1 1a2 1.4 24.5 0 0-1 .2L67 287.5a.4.4-37.1 0 0 0 .6q1.7 1.7 3.8.3 5.7-3.7 11.1-5.7 1.4-.5 2.6-.1 1.2.4 2.3 1.2" vector-effect="non-scaling-stroke"/><path stroke="#504f4f" d="M86.8 283.8q1.3 1.7 3.5 2" vector-effect="non-scaling-stroke"/><path stroke="#878787" d="M90.3 285.7q1.8.5 1 1.5l-.8.8-4.8 6.7" vector-effect="non-scaling-stroke"/><path stroke="#646464" d="M85.7 294.8q-.9.7-1 1.4-.5 2.5 1 1.4.3-.2.5-.8.4-.9 1.5-1" vector-effect="non-scaling-stroke"/><path stroke="#878787" d="M87.8 295.8q2.9-2.4 4.9-6.4 1-2 2.5-.5a1.8 1.1-2.6 0 0 .8.4l7 2" vector-effect="non-scaling-stroke"/><path stroke="#646464" d="M103 291.3q2.9 1.8 6.3 2" vector-effect="non-scaling-stroke"/><path stroke="#878787" d="M109.3 293.3q.3.1.5.4a1 .5-55 0 1-.2.9l-3.2 5.4" vector-effect="non-scaling-stroke"/><path stroke="#a2a2a2" d="M300 112.3q-.9-3.9-.5-7.8" vector-effect="non-scaling-stroke"/><path stroke="#929292" d="M299.5 104.5q.5-2.5.2-5-1.1-12.4-2.6-24.7-1.5-13.3-5-22.5-6.4-17.4-9.4-31.1-.8-3.7-1.6-5-1.8-2.7-4.8-3.2-2.7-.3-6.8 1.7-5.3 2.6-9.7 6.6l-3.7 3.3q-4.9 4.2-6.4 6-14.7 18-18.3 21.8-4.7 5.3-7 11.5-.8 2.2 1.2 3.5 1.7 1 3.5 1.3l2.8.3q13 3 26.7 9.2 11.4 5.2 20 9.9 3.7 2 7.7 5l7.4 5.5q1.5 1 5.6 6" vector-effect="non-scaling-stroke"/><path stroke="#a2a2a2" d="M299.3 104.5q-.4 1.3-1.3 1.2-.6-.1-1.1-.8-6.8-8.9-17-14.3-16.7-9-32.2-15.6-9.6-4-20-5.4-2.5-.3-5.9-1.2-3-.7-6-1" vector-effect="non-scaling-stroke"/><path stroke="#c7c6c6" d="M215.8 67.5q.4-.8 1.4-.5" vector-effect="non-scaling-stroke"/><path stroke="#a2a2a2" d="M217.3 67q2.1.5 3.2-1.3 4-6.7 8.6-12.8l9.6-12q4.2-5.3 8.6-10.4 2.2-2.7 5.2-5.3l5.5-5q4.6-4.3 7.7-6 4.2-2.5 9-4a1.7 1.6-37.2 0 1 1.4.1q1.5 1 2.6-.2a.7.6 51 0 0 0-.8q-2.3-3.6-6.4-3-7.5 1-15.6 4.7" vector-effect="non-scaling-stroke"/><path stroke="#c7c6c6" d="M256.7 11q-1.9 0-3 1.5" vector-effect="non-scaling-stroke"/><path stroke="#a2a2a2" d="M253.8 12.5q-3.6 2.4-5 3Q232.2 24 221.7 34l-19 18q-5.7 5-9.7 11.6a.4.4 25.8 0 0 .2.6l4.6 1.6m-1.3.4q-11.4-.4-22.7.4-1.4.1-3 .5l-3.2.6q-2.5.4-4.5 1.1-23.3 7.8-32.8 12-6.1 2.7-15.8 9.5l-8.4 5.2q-3.9 2.4-9 6.2-12.1 9.2-19.8 17.1l-3.2 3.2q-3.1 3-5.4 7.2-6.2 11.3-10.4 21.6-2.2 5.4-3 10.1l-1.1 7.6q-1.3 6.3-1.5 13.2 0 2-.5 4.3-.5 2.7-.6 4.1 0 3 .4 5.8l.6 5.7q.7 11.6 2.8 22.9 1.9 10 5.5 19.1 3.6 9.2 8.5 18.7 2.2 4.2 5.1 6.7" vector-effect="non-scaling-stroke"/><path stroke="#c7c6c6" d="M74.5 269q.2.9.8 1.5" vector-effect="non-scaling-stroke"/><path stroke="#a2a2a2" d="M75.3 270.5q3.8 5.1 9.4 8.3" vector-effect="non-scaling-stroke"/><path stroke="#c7c6c6" d="M84.7 278.8q.4.4 1 .5" vector-effect="non-scaling-stroke"/><path stroke="#a2a2a2" d="M85.8 279.3q4 3.3 9.2 4.7m1.7 1.3.4.4.5.3q4.8 1 9.3 2.9 5.4 2 11 2.5 4.2.4 11.2.4 5.5 0 12.1-1 30.2-4.6 53-10.3 18.9-4.7 33-11l7-3 7.4-3q6.4-2 13.7-6.7 5.3-3.4 15.6-8.4 6-3 11.4-6.5 4.3-2.9 9.2-7.6l8.5-8.5" vector-effect="non-scaling-stroke"/><path stroke="#878787" d="M300 233.3q-.4-1-.3-1.9.2-1.1-.6-.3l-10.8 10.2q-.8.8.4 1 5.6.9 10.5 4.5.5.4.8-.2" vector-effect="non-scaling-stroke"/><path stroke="#7f7f7f" d="M300 251.8q-.5-1.3-.8-1.5-4.7-3.7-10.5-5.3-4.5-1.2-6.9 0-13.6 7.4-27.1 15 8.6 8.3 14.8 18 .3.4.5 0 4.2-9 14.6-5a1.4 1.4-67.7 0 0 1.7-.7q3.8-8.7 13.7-7.5" vector-effect="non-scaling-stroke"/><path stroke="#878787" d="M300 269.6q0-1.8-2.3-1.6-2.5.3-4.2.7-2.1.5-3.6 2.2-2 2.3-1.7 4.3.6 4.4-3.1 2-5.7-3.8-10.1-.7-2.4 1.7-1 4.3 1.4 2.9 3.4 5.4 2.4 3 3.2 4.4l2.7 4.8q1 2 2.2.2 2-2.9 3-6.2.3-1.2.7-4.3.4-3.2 1.4-4.3 2.6-3 6-.6 1.3 1 2.7 3.9.2.4.4 0l.3-1" vector-effect="non-scaling-stroke"/><path stroke="#a2a2a2" d="M296.7 300q1-.5.9-1.6v-1.3q.7-5 .1-9.9-.3-3.3-3.2-5-1.8-1.1-2.2 1l-2.8 12.7a2 2-11.2 0 1-.9 1.2q-3.8 2.6-2.1 2.5 1.3 0 2.4.4m-7.5 0q2.2-.5.6-1.1a1.6 1.3.7 0 1-.7-.6q-3.8-6-7.4-12.2-1.3-2.3-3.6-3.5a1.9 1.5 1.7 0 1-.7-.6q-4.6-7.2-10.1-13.7-4.2-4.9-10.3-5-1.6-.2-3.7.7-2.4 1-3.7 1.3-4.1 1-8 2.9l-7.5 3.6q-19.7 7.9-41.8 12.7-9.4 2-22.1 5.8l-3.3.6q-3.8.7-4.7 4.7l-.7 2q-.4 1.2 0 2.4" vector-effect="non-scaling-stroke"/><path stroke="#7f7f7f" d="M151 300q1-3.9.7-8a.6.6 88.3 0 0-.5-.4q-2.3 0-4.5.4-4.2 1-5 1-11.5 1.5-23.2 1.3" vector-effect="non-scaling-stroke"/><path stroke="#c7c6c6" d="m118.5 294.3-3.2-.2a1 .8 15.8 0 0-.8.3q-.4.4-.2 1" vector-effect="non-scaling-stroke"/><path stroke="#7f7f7f" d="m114.3 295.5-2.5 2.6q-1 1.2.1 1.9" vector-effect="non-scaling-stroke"/><path stroke="#dbdbdb" d="M109.3 293.3q2-.5 0-.8h-.6q-1 .3-1.4-.3a1.3.6 59.9 0 0-.8-.5l-3.5-.4m-15.3 4.5q-1.8.5-2-1" vector-effect="non-scaling-stroke"/><path stroke="#c7c6c6" d="M90.3 285.7q-1-2.2-3.5-2" vector-effect="non-scaling-stroke"/><path stroke="#dbdbdb" d="M72.3 272.2q-2.3-1.1-2.5-3.7m-50-182.3q3 .5 6-.7M9.1 92q-2.6 5.7 0 11.4l.2 1 .2 2.8q0 .5.1 0 .3-2 .3.6" vector-effect="non-scaling-stroke"/><path stroke="#929292" d="M10 107.8q0 1.9 1 7 5.1 27.7 18 50.5l2.3 4.1q1 2.2 2.4 4.1 3 4.2 4 5.9 4.6 7.6 10 14.2a.8.8 39.3 0 0 1.5-.1q1.3-2.5 1-5.2-.1-2 .5-6 1.3-9.3 2.8-18.5.1-.9.6-2 .4-.9.5-1.8.4-3.7 1.7-7.2l2-5.3Q62.5 135 69.7 124l2.3-3q2.6-3.2.7-6.1-1.1-1.9-5.1-4.1-10.4-6-24.4-10.6-8.3-2.8-15.5-2.7-1.2 0-4 .7-1.9.5-4 .5-3.8-.1-6.7 2.2" vector-effect="non-scaling-stroke"/><path stroke="#dbdbdb" d="M13 101q-1 0-2-.3" vector-effect="non-scaling-stroke"/><path stroke="#a2a2a2" d="M11 100.7q1.3-3.9 4.5-4 5.1-.1 10.2-.9 2.4-.4 7.6.5 3.5.5 7.4 1.6 18.8 5.3 35.5 16a2.5 2.5 44.8 0 0 2.7 0q9.8-6.3 18.9-13.5l3.2-3 3.2-3q.6-.4-.2-.5-5-.6-9-1.6l-4.5-.6q-2.3-.2-4.5-1-3.8-1.4-7.7-2.2-3-.5-8-.6-10-.1-19.9-.5-8.8-.4-16.3.2l-22.7 1.8q-1.1.1-1.6.7-.6.8-.6 1.9" vector-effect="non-scaling-stroke"/><path stroke="#7f7f7e" d="M11 100.7q-.8.7-1-.2-.7-3.6-.8-8.5" vector-effect="non-scaling-stroke"/><path stroke="#6f6f6f" d="M13 101q-2.4 3-3 6.8" vector-effect="non-scaling-stroke"/><path stroke="#6a6a6a" d="M253.8 12.5q1.6-.3 3-1.5" vector-effect="non-scaling-stroke"/><path stroke="#363636" d="M299.5 104.5h-.3" vector-effect="non-scaling-stroke"/><path stroke="#a4a3a3" d="M202.3 66.3q-1 .3-2 .2" vector-effect="non-scaling-stroke"/><path stroke="#454545" d="M300 195q-.8 0-.8-1.2.3-7.8-.1-26.7 0-.5 0 0l-.3 52.3q0 1.2 1.2 1.4" vector-effect="non-scaling-stroke"/><path stroke="#7f7f7e" d="M96.7 285.3q.5-1.8 2.3-2.2a1.9 1.1 4.7 0 0 .8-.4q2.5-2.5-1.2-1.1-1.8.6-3.6 2.4" vector-effect="non-scaling-stroke"/><path stroke="#6a6a6a" d="m85.8 279.3 2.8-.8h1.7q1.8.2 1.2-1.6a.9.8-4.7 0 0-.7-.5q-3.7-.5-6 2.4m-9.5-8.3.7.3.7-.1q3.8-1.3 7.8-1.4a1.3 1 12.3 0 0 .9-.4q.7-.8-.7-1.1-3.5-.9-10.2 1.2" vector-effect="non-scaling-stroke"/><path stroke="#a2a2a2" d="M236.8 225q13 1 24.8-6.7l4.5-3q2.1-1.4 3.3-3.5l4.7-8.5q2-3.8 2.8-7.6.7-2.7 1.2-8 .9-10.2-3-19.6-1.3-3-4-7-3.5-5.2-4.8-6.7-4.3-5-9-6.7-23.5-8.5-42 4.7-7 5-10.3 10.4-3.7 6.3-4.2 14.4-1.3 19.5 11.8 36.8 1.2 1.6 2.8 2.8 6.6 5 16.1 7.7" vector-effect="non-scaling-stroke"/><path stroke="#f6f6f6" d="M236.8 225q-.7-.6-.6-1.4a.6.6 4.3 0 1 .6-.5h6.6q2.5 0 5-1.2 4.8-2.2 9.9-4 3-1.2 5-3 5.2-5 8.3-11.4 2.6-5.5 3.2-13 .5-6.4 0-13.5-.3-3.2-1.1-5.6-.3-.8-1.4-2.5-.8-1-1.5-2.5-2.2-4.5-6-9.2-2.6-3.1-7.6-5.4-12.6-6-25-3.3-8.7 1.9-15.3 6.3-7 4.9-10.8 13.3-.8 1.7-1.3 5.2l-.9 5.3q-1.2 6.7.8 13.9 2.7 9.4 7.6 16.4 1.5 2.1 2 3.9 0 .5.3.7.4.3 1 .2a1.6.8-24.2 0 1 .9 0q4.3 2.2 8.2 5.2l3.4 2.3 3.7 1.9.7.5q.8 1-1 1" vector-effect="non-scaling-stroke"/><path stroke="#999" d="M70.8 234q.5 3.8 2.2 7.3" vector-effect="non-scaling-stroke"/><path stroke="#a2a2a2" d="M73 241.3q1.5 5 5.7 9.8 5.4 6.2 11.2 10.2 2.5 1.7 5.8 2.2 7.8 1.4 14.5 1.3 7.9-.3 14.5-4 6.5-3.7 10.4-10.2 5.8-9.6 4.6-21.6l-.4-4q-.2-1.1-.2-4 0-2.8-1-5.4-.7-1.7-1.2-3.8-.5-1.7-1.5-3.7-4.3-9.3-10.8-15.7-.9-.8-4.2-2.4l-3.5-1.8q-4.6-2.3-9.6-2.6-4.6-.2-8.6 0-4.8.3-8.9 2.7-6.8 4-12.4 10.5-2.8 3.2-4.3 6.3-1.6 3.5-2.4 7.3-2 10.8 0 21.6" vector-effect="non-scaling-stroke"/><path stroke="#f6f6f6" d="M73 241.3q1.4-.9 2.3.6 6.4 11.3 18.1 17.6 2.8 1.5 6.5 2l12.8 1.4 1.1.2q1.5.2 2.1-.7a4.5 4.5-85.4 0 1 2.1-1.8q13.7-6 18-19 .5-1.4.8-4.4.2-2.3.8-4.5a1.8 1.8 44.7 0 0 0-1q-.8-2.7-.8-5.6v-5.7q-.6-3-1.7-5.7-1-2.2-1.1-4.3-.2-2.4-.6-3.2-.8-1.4-2.4-2.3a2 1.6 3.6 0 1-.7-.6q-3.2-5.7-5.1-8.5-2-2.9-5.6-2.4a1.3 1.2-28.4 0 1-1-.3q-8.7-6.4-19.6-4.6-7 1.2-12 5-6.3 4.6-11.6 11.9-3.8 5.1-3.4 12.4V233q0 .5-.3.8-.3.3-1 .1" vector-effect="non-scaling-stroke"/><path stroke="#999" d="M171.4 224.8q-2.8-.8-5.9 1.7a1 1 45.5 0 0 0 1.5q4.4 3.8 6.5-2a.9.9 18.2 0 0-.6-1.2m4.4 11q-2.4-.3-4.1-.3a2 2-76.2 0 0-1.9 1.1q-3.6 7.1-10.8 4.3a.9.6 28.6 0 0-.9.2q-.5.6.3 1.2 3.8 2.7 7.6 1 1-.6 2.6-2l2.4-2q2.5-2 5.7-1.6 5.3.7 9-1.9 1.6-1 2-2.5.4-1.8-.8-3.4-.3-.4-.5.1-2.7 7-10.6 5.9" vector-effect="non-scaling-stroke"/><path stroke="#bebebe" d="M227.5 211.3q7.3 4.5 15.5 2.4" vector-effect="non-scaling-stroke"/><path stroke="#777" d="M243 213.7q10.4-.7 16.4-8 4-5 6.1-11.5 2-6.2 1.2-12.6-1.6-12.8-12-21.6-5.3-4.5-12-5.2-3.7-.3-7.9 0-4.2.4-7.6 2.1-13 6.6-14.7 19.8-1 8.3 1 16.5 3 11.5 14 18" vector-effect="non-scaling-stroke"/><path stroke="#484747" d="M243 213.7q-6.9.3-11.8-1.4-2.7-1-3.7-1" vector-effect="non-scaling-stroke"/><path stroke="#999" d="M97.8 254q5.3 2.7 11 .5" vector-effect="non-scaling-stroke"/><path stroke="#777" d="M108.8 254.5q16.9-2.5 19.5-19.3 1.7-11.3-2.8-22.2" vector-effect="non-scaling-stroke"/><path stroke="#999" d="M125.5 213q-1.8-5-5.3-8.8" vector-effect="non-scaling-stroke"/><path stroke="#777" d="M120.3 204.2q-8.6-9.3-20.9-8.5-3 .2-5.6 1.4-2.4 1-5 2.9-5.1 3.5-7.3 8.5-4.1 9.5-2.6 19.5.9 5.6 2.1 9.1 1.6 4.7 5 8.2 2.3 2.3 5.5 4.9 2.9 2.3 6.3 3.8" vector-effect="non-scaling-stroke"/><path stroke="#232323" d="M120.3 204.2q-.5.5-.1 1l.4.4 4.9 7.4m-16.8 41.5-11-.5" vector-effect="non-scaling-stroke"/><path stroke="#363636" d="M197.7 300q.5-.3 0-.4-14.8-1-29.7-.6l-10-.2a1 .8 13 0 0-.8.3q-.3.4-.3.9" vector-effect="non-scaling-stroke"/></g><path fill="#101010" d="M0 0h300v64.3l-.6 2.9q0 .4 0 0-.2-2.9-1.1-5.5l-1-2.8q-2.7-8.3-5.6-16.4-2-5.8-3.8-12.2l-3.5-12.2q-1.3-4.7-3.2-8.6-1.8-3.8-4-5-3.1-1.6-7.3-.3-10.8 3.5-15.2 5.2-1.7.7-2.8 1.4l-2.6 1.5q-8.8 4.2-16.7 9.8-4.8 3.3-11.2 9.4l-10.7 10q-12.5 11-20.4 20.6a1.4 1.4-76.3 0 1-.8.5q-6.2 1.2-11.3.9-2.5-.2-4.5.3l-2.5.7q-18.3 3.4-35.1 11.5-.9.4-3.4 1.1-1.4.4-3.3 1.3-8.4 4.2-14.5 8-4 2.5-6.7 3.2-6.4 1.4-12.7-.2-1.7-.4-4.6-.8-2-.2-4.7-.8-7.5-1.8-19.4-2.6-20.6-1.4-41 .3l-6 .8q-2.8-.2-5.4.2h-3.3q-2.7 0-3.4 3-1.9 7-1.1 14.5.3 3 2.7 14.1 1.8 8.8 4.6 17.3l2.3 8.3q1.1 4.1 3.1 8 5.5 10.7 11.8 21l5 8.8q4 6.8 8 11.6 3.5 4 5.3 8.3 1.2 2.8 1.6 9 1 14.8 5.4 29 1.4 4.2 4.4 10.8l4.7 10.8q1.6 4 4.3 7.5l-.3.6a1.4 1-2.2 0 1-.7.6q-4.3 1.4-8.8 2.5-1.4.4-2.3 1.5a.4.4-64.1 0 0 .2.6q2.2.6 4.2.2l3.3-.7q3.5-.5 6.8-1.6l8.1 7 .8.6q1.7 1.2-1 1a2 1.4 24.5 0 0-1 .2L67 287.5a.4.4-37.1 0 0 0 .6q1.7 1.7 3.8.3 5.7-3.7 11.1-5.7 1.4-.5 2.6-.1 1.2.4 2.3 1.2 1.4 1.7 3.5 2 2 .4 1 1.4l-.7.8-4.8 6.7q-.9.8-1 1.5-.5 2.5 1 1.4.3-.2.5-.8.4-.9 1.5-1 3-2.4 5-6.4 1-2 2.5-.5a1.8 1.1-2.6 0 0 .8.4l7 2q2.9 1.8 6.2 2 .4.1.6.4a1 .5-55 0 1-.2.9l-3.2 5.4H0V0Z"/><path fill="#fefefe" d="M300 64.3v48q-.9-3.9-.5-7.8.5-2.5.2-5-1.1-12.4-2.6-24.7-1.5-13.3-5-22.5-6.4-17.4-9.4-31.1-.8-3.7-1.6-5-1.8-2.7-4.8-3.2-2.7-.3-6.8 1.7-5.3 2.6-9.7 6.6l-3.7 3.3q-4.9 4.2-6.4 6-14.7 18-18.3 21.8-4.7 5.3-7 11.5-.8 2.2 1.2 3.5 1.7 1 3.5 1.3l2.8.3q13 3 26.7 9.2 11.4 5.2 20 9.9 3.7 2 7.7 5l7.4 5.5q1.5 1 5.6 6-.4 1.2-1.3 1-.6 0-1.1-.7-6.8-8.9-17-14.3-16.7-9-32.2-15.6-9.6-4-20-5.4-2.5-.3-5.9-1.2-3-.7-6-1 .4-.7 1.5-.4 2.1.5 3.2-1.3 4-6.7 8.6-12.8l9.6-12 8.6-10.4q2.2-2.7 5.2-5.3l5.5-5q4.6-4.3 7.7-6 4.2-2.5 9-4a1.7 1.6-37.2 0 1 1.4.1q1.5 1 2.6-.2a.7.6 51 0 0 0-.8q-2.3-3.6-6.4-3-7.5 1-15.6 4.7-1.9 0-3 1.5-3.5 2.4-4.9 3Q232.2 24 221.7 34l-19 18q-5.7 5-9.7 11.6a.4.4 25.8 0 0 .2.6l4.6 1.6-1.3.4q-11.4-.4-22.7.4-1.4.1-3 .5l-3.2.6q-2.5.4-4.5 1.1-23.3 7.8-32.8 12-6.1 2.7-15.8 9.5l-8.4 5.3q-3.9 2.3-9 6Q85 111 77.4 119l-3.2 3.1q-3.1 3-5.4 7.2-6.2 11.3-10.4 21.6-2.1 5.4-3 10.1l-1.1 7.6q-1.3 6.3-1.4 13.3-.1 2-.6 4.2-.5 2.7-.6 4.1 0 3 .4 5.8.6 4 .7 5.7.6 11.6 2.7 22.9 1.9 10 5.5 19.2 3.6 9.1 8.5 18.6 2.2 4.2 5.1 6.7.2.9.8 1.5 3.8 5.1 9.4 8.3.4.4 1 .5 4.1 3.3 9.3 4.7l1.7 1.3.4.4.5.3q4.8 1 9.3 2.9 5.4 2 11 2.5 4.2.4 11.2.4 5.6 0 12.2-1 30.1-4.6 53-10.3 18.8-4.7 32.8-11l7.2-3 7.3-3q6.4-2 13.7-6.7 5.4-3.4 15.6-8.4 6-3 11.4-6.5 4.3-2.9 9.2-7.6l8.5-8.5v7.5q-.4-1-.3-1.9.2-1.1-.6-.3l-10.7 10.2q-1 .8.3 1 5.6.9 10.5 4.5.5.4.8-.2v5.2q-.5-1.3-.8-1.5-4.7-3.7-10.5-5.3-4.5-1.2-6.9 0-13.6 7.4-27.1 15 8.6 8.3 14.8 18 .3.4.5 0 4.2-9 14.6-5a1.4 1.4-67.7 0 0 1.7-.7q3.8-8.7 13.7-7.5v4.8q0-1.8-2.2-1.6-2.6.3-4.3.7-2.1.6-3.6 2.2-2 2.3-1.7 4.3.6 4.4-3.1 2-5.7-3.8-10.1-.7-2.4 1.7-1 4.3 1.4 2.9 3.4 5.4 2.4 3 3.2 4.5l2.7 4.8q1 2 2.2 0 2-2.8 3-6.1.3-1.2.7-4.3.4-3.2 1.4-4.3 2.6-3 6-.6 1.3 1 2.7 3.9.2.4.4 0l.3-1V300h-3.3q1-.5.9-1.6v-1.3q.7-5 .2-9.9-.4-3.3-3.3-5-1.7-1.1-2.2 1l-2.8 12.7a2 2-11.2 0 1-.9 1.2q-3.8 2.6-2.1 2.5 1.3 0 2.4.4h-7.5q2.2-.5.6-1.1a1.6 1.3.7 0 1-.7-.6q-3.8-6-7.4-12.2-1.3-2.3-3.6-3.5a1.9 1.5 1.7 0 1-.7-.6q-4.6-7.2-10.1-13.7-4.2-4.9-10.3-5-1.6-.2-3.7.7-2.4 1-3.7 1.3-4.1 1-8 2.9l-7.5 3.6q-19.7 7.9-41.8 12.7-9.4 2-22.1 5.8l-3.3.6q-3.8.7-4.7 4.7l-.7 2q-.4 1.2 0 2.4H151q1.2-3.9.8-8a.6.6 88.3 0 0-.5-.5q-2.3 0-4.5.5-4.2 1-5 1-11.5 1.5-23.2 1.3l-3.2-.2a1 .8 15.8 0 0-.8.3q-.4.4-.2 1l-2.5 2.7q-1 1.2.1 1.9h-5.5l3.2-5.4a1 .5-55 0 0 .2-.9q-.2-.3-.5-.4 2-.5 0-.8h-.6q-1 .2-1.4-.3a1.3.6 59.9 0 0-.8-.5l-3.5-.4-7-2a1.8 1.1-2.6 0 1-.8-.4q-1.4-1.6-2.5.5-2 4-5 6.4-1.8.5-2-1l4.8-6.8.7-.8q1-1-1-1.5-1-2.2-3.4-2-1.1-.7-2.4-1.1-1.2-.4-2.6.1-5.4 2-11.1 5.7-2 1.4-3.8-.3a.4.4-37.1 0 1 0-.6l12.2-6.5a2 1.4 24.5 0 1 1-.2q2.7.2 1-1l-.8-.6-8-7q-2.3-1.1-2.5-3.7-2.7-3.5-4.3-7.5l-4.7-10.8q-3-6.6-4.4-10.8-4.4-14.2-5.4-29-.4-6.2-1.6-9-1.8-4.4-5.2-8.3-4.1-4.8-8-11.6l-5.1-8.7q-6.2-10.4-11.8-21.1-2-3.9-3.1-8l-2.3-8.3q-3-8.4-4.7-17.3Q6.9 107 6.6 104q-.8-7.5 1-14.6.9-2.8 3.5-2.9h3.3q2.7-.4 5.3-.3 3.2.5 6-.7 20.5-1.7 41-.3 12 .8 19.6 2.5 2.7.7 4.6 1 2.9.3 4.6.7 6.4 1.6 12.7.2 2.7-.7 6.7-3.2 6-3.8 14.5-8 1.9-.9 3.4-1.3 2.5-.7 3.3-1.1 16.8-8 35.1-11.5l2.6-.7q1.9-.5 4.5-.3 5 .3 11.2-.9a1.4 1.4-76.3 0 0 .8-.5q7.9-9.6 20.4-20.7l10.7-10q6.4-6 11.2-9.3 8-5.6 16.7-9.8l2.6-1.5q1-.7 2.8-1.4 4.4-1.8 15.2-5.2 4.2-1.3 7.2.3 2.3 1.2 4.1 5 1.9 3.9 3.2 8.6l3.5 12.2q1.7 6.4 3.8 12.2 3 8.1 5.5 16.4l1 2.8q1 2.6 1.1 5.5 0 .4 0 0l.7-2.9ZM9.2 92q-2.6 5.7 0 11.4l.2 1 .2 2.8q0 .5.1 0 .2-2 .3.6 0 1.9 1 7 5.1 27.7 18 50.5l2.2 4.1q1.2 2.2 2.5 4.1 3 4.2 4 5.9 4.6 7.6 10 14.2a.8.8 39.3 0 0 1.5-.1q1.3-2.5 1-5.2-.1-2 .5-6 1.3-9.3 2.8-18.5.1-.9.6-2 .4-.9.5-1.8.4-3.7 1.7-7.2l2-5.3Q62.5 135 69.7 124l2.3-3q2.6-3.2.7-6.1-1.1-1.9-5.1-4.1-10.4-6-24.4-10.6-8.3-2.8-15.5-2.7-1.2 0-4 .7-1.9.5-4 .5-3.8-.1-6.7 2.2-1 0-2-.3 1.3-3.9 4.5-4 5.1-.1 10.2-.9 2.4-.4 7.6.5 3.5.5 7.4 1.6 18.8 5.3 35.5 16a2.5 2.5 44.8 0 0 2.7 0q9.8-6.3 18.9-13.5l3.2-3 3.2-3q.6-.4-.2-.5-5-.6-9-1.6l-4.5-.6q-2.3-.2-4.5-1-3.8-1.4-7.7-2.2-3-.5-8-.6-10-.1-19.9-.5-8.8-.4-16.3.2-11.4.8-22.7 1.8-1.1.1-1.6.7-.6.8-.6 1.9Z"/><path fill="#454545" d="m217.3 67-15-.7-4.6-.5-4.5-1.6a.4.4 25.8 0 1-.2-.6q4-6.5 9.6-11.7l19-18q10.6-10 27.2-18.3 1.4-.7 5-3.1 1.6-.3 3-1.5 8-3.8 15.4-4.8 4.2-.5 6.5 3.1a.7.6 51 0 1 0 .8q-1.1 1.1-2.6.2a1.7 1.6-37.2 0 0-1.3-.1q-4.9 1.5-9.1 4-3.1 1.7-7.7 6l-5.5 5q-3 2.6-5.2 5.3-4.4 5.1-8.6 10.4l-9.6 12q-4.7 6.1-8.6 12.8-1.1 1.8-3.3 1.3Z"/><path fill="#8f8e8e" d="M256.7 11q-1.3 1.2-3 1.5 1.1-1.5 3-1.5Z"/><path fill="#262626" d="M299.5 104.5h-.3q-4-4.8-5.5-6l-7.4-5.4q-4-3-7.6-5-8.7-4.7-20.1-10-13.7-6.2-26.7-9l-2.8-.4q-1.8-.2-3.5-1.3-2-1.3-1.2-3.5 2.3-6.2 7-11.5 3.6-3.9 18.3-21.7 1.5-1.9 6.4-6.1l3.7-3.3q4.4-4 9.6-6.6 4.2-2 7-1.7 3 .4 4.6 3.1 1 1.4 1.7 5 3 13.8 9.5 31.2 3.4 9.2 5 22.5 1.4 12.3 2.5 24.7.3 2.5-.2 5Z"/><path fill="#b8b8b7" d="m197.8 65.8 4.4.5q-1 .3-2 .2l-3.7-.3 1.3-.4Z"/><path fill="#454545" d="m196.5 66.2 3.8.3 15.4 1q3.1.2 6.1 1 3.4.7 6 1Q238 71 247.7 75q15.5 6.6 32.2 15.6 10.2 5.4 17 14.3.5.7 1 .8 1 .1 1.4-1.2h.2q-.4 4 .5 7.8v82.8q-.8 0-.8-1.3.3-7.8-.1-26.7 0-.5 0 0l-.3 52.3q0 1.2 1.2 1.4v5l-8.5 8.5q-4.9 4.7-9.2 7.6-5.5 3.6-11.4 6.5-10.2 5-15.6 8.4-7.3 4.7-13.7 6.8-1.4.4-7.3 2.8l-7.2 3.2q-14 6.2-32.8 10.9-22.9 5.7-53 10.3-6.7 1-12.2 1-7 0-11.2-.4-5.6-.4-11-2.5-4.5-1.8-9.3-2.9-.3 0-.5-.3l-.4-.4q.5-1.8 2.3-2.2a1.9 1.1 4.7 0 0 .9-.4q2.4-2.5-1.3-1.1-1.8.6-3.6 2.4-5.2-1.4-9.2-4.7l2.8-.8h1.7q1.8.2 1.2-1.6a.9.8-4.7 0 0-.7-.5q-3.7-.5-6 2.4-5.7-3.2-9.5-8.3l.7.3.7-.1q3.8-1.3 7.8-1.4a1.3 1 12.3 0 0 .9-.4q.7-.8-.7-1.1-3.5-.9-10.2 1.2-3-2.5-5-6.7-5-9.5-8.6-18.6-3.6-9.2-5.5-19.2-2-11.3-2.7-22.9L52 196q-.4-2.9-.4-5.8 0-1.4.6-4.1.5-2.3.5-4.2.2-7 1.5-13.3l1.2-7.6q.7-4.7 3-10 4-10.4 10.3-21.7Q71 125 74 122l3.2-3.1q7.7-8 19.9-17.2 5-3.8 8.9-6.1l8.4-5.3q9.7-6.8 15.8-9.5 9.4-4.2 32.8-12 2-.7 4.5-1.1l3.1-.6q1.7-.4 3.1-.5 11.3-.8 22.7-.4Zm35 158.3 5.3.5q13 1 24.8-6.7l4.5-3q2.1-1.4 3.3-3.5l4.7-8.5q2-3.8 2.8-7.6.7-2.7 1.2-8 .9-10.2-3-19.6-1.3-3-4-7-3.5-5.2-4.8-6.7-4.3-5-9-6.7-23.5-8.5-42 4.7-7 5-10.3 10.4-3.7 6.3-4.2 14.4-1.3 19.5 11.8 36.8 1.2 1.6 2.8 2.8 6.6 5 16.1 7.7ZM70.8 234q.5 3.8 2.2 7.3 1.5 5 5.7 9.8 5.4 6.2 11.2 10.2 2.5 1.7 5.8 2.2 7.9 1.4 14.6 1.3 7.8-.3 14.4-4 6.5-3.7 10.4-10.2 5.8-9.6 4.6-21.6l-.4-4q-.2-1.1-.2-4 0-2.8-1-5.4-.7-1.7-1.2-3.8-.5-1.7-1.5-3.7-4.3-9.3-10.8-15.7-.9-.8-4.2-2.4l-3.5-1.8q-4.6-2.3-9.6-2.6-4.6-.2-8.6 0-4.8.3-8.9 2.7-6.8 4-12.4 10.5-2.8 3.2-4.3 6.3-1.6 3.5-2.4 7.3-2 10.8 0 21.6Zm100.6-9.2q-2.8-.8-5.8 1.7a1 1 45.5 0 0 0 1.5q4.3 3.8 6.4-2a.9.9 18.2 0 0-.6-1.2Zm4.4 11q-2.4-.3-4.1-.3a2 2-76.2 0 0-1.9 1.1q-3.6 7.1-10.8 4.3a.9.6 28.6 0 0-.9.2q-.5.6.3 1.2 3.8 2.7 7.6 1 1-.6 2.6-2l2.4-2q2.5-2 5.7-1.6 5.3.7 9-1.9 1.6-1 2-2.5.4-1.8-.8-3.4-.3-.4-.5.1-2.7 7-10.6 5.9Z"/><path fill="#8f8e8e" d="m202.3 66.3 15 .7q-1.1-.3-1.6.5l-15.4-1q1 .1 2-.2Z"/><path fill="#b8b8b7" d="M25.8 85.5q-3 1.3-6 .8l6-.8Z"/><path fill="#454545" d="M11 100.7q-.8.7-1-.2-.7-3.6-.8-8.5 0-1.1.6-1.9.5-.6 1.6-.7l22.7-1.8q7.5-.6 16.3-.2 10 .4 19.9.5 5 0 8 .6 4 .8 7.7 2.2 2.2.8 4.5 1 2.9.2 4.4.6 4.1 1 9.1 1.6.8 0 .2.6l-3.2 3-3.2 2.9q-9.1 7.2-19 13.6a2.5 2.5 44.8 0 1-2.6 0q-16.7-10.8-35.5-16-3.9-1.2-7.4-1.8-5.2-.8-7.6-.4-5 .8-10.2 1-3.2 0-4.5 4Z"/><path fill="#b8b8b7" d="M9.2 92q.1 5 .8 8.5.2 1 1 .2 1 .4 2 .3-2.4 3-3 6.7 0-2.6-.3-.5 0 .5 0 0l-.3-2.9-.2-1q-2.6-5.6 0-11.3Z"/><path fill="#262626" d="M10 107.8q.6-3.9 3-6.8 3-2.3 6.8-2.2 2 0 4-.5 2.7-.7 3.9-.7 7.2-.1 15.6 2.7 13.9 4.6 24.3 10.6 4 2.2 5.1 4 1.9 3-.7 6.2l-2.3 3q-7.2 11-11.4 23.4l-2 5.3q-1.3 3.5-1.7 7.2-.1 1-.5 1.9-.5 1-.6 1.8l-2.8 18.6q-.6 4-.4 6 .2 2.7-1.1 5.1a.8.8 39.3 0 1-1.4.2q-5.5-6.6-10-14.2-1-1.7-4-5.9-1.4-2-2.5-4l-2.3-4.2q-12.9-22.8-18-50.5-1-5.1-1-7Z"/><path fill="#fefefe" d="M236.8 225q-.7-.6-.6-1.4a.6.6 4.3 0 1 .6-.5h6.6q2.5 0 5-1.2 4.8-2.2 9.9-4 3-1.2 5-3 5.2-5 8.3-11.4 2.6-5.5 3.2-13 .5-6.4 0-13.5-.3-3.2-1.1-5.6-.3-.8-1.4-2.5-.8-1-1.5-2.5-2.2-4.5-6-9.2-2.6-3.1-7.6-5.4-12.6-6-25-3.3-8.7 1.9-15.3 6.3-7 4.9-10.8 13.3-.8 1.7-1.3 5.2l-.9 5.3q-1.2 6.7.8 13.9 2.7 9.4 7.6 16.4 1.5 2.1 2 3.9 0 .5.3.7.4.3 1 .2a1.6.8-24.2 0 1 .9 0q4.3 2.2 8.2 5.2l3.4 2.3 3.7 1.9.7.5q.8 1-1 1-9.5-2.7-16-7.8-1.7-1.3-2.9-2.8-13.1-17.3-11.9-36.8.6-8.1 4.3-14.4 3.3-5.5 10.2-10.4 18.6-13.2 42.1-4.7 4.7 1.7 9 6.7 1.3 1.5 4.7 6.6 2.8 4.1 4 7.1 4 9.4 3 19.7-.4 5.1-1 8-.9 3.7-3 7.5l-4.5 8.5q-1.3 2.1-3.4 3.5l-4.5 3q-11.9 7.7-24.9 6.7Z"/><path fill="#ededed" d="m236.8 225-5.3-.5q1.8 0 1-.9l-.7-.5-3.7-2q-1.5-.7-3.4-2.2-3.9-3-8.2-5.2a1.6.8-24.2 0 0-1 0q-.5 0-.9-.2l-.4-.7q-.4-1.7-1.9-3.9-5-7-7.5-16.4-2-7.2-.9-13.9l.9-5.3q.5-3.5 1.3-5.2 3.8-8.4 10.8-13.3 6.6-4.4 15.3-6.3 12.4-2.6 25 3.3 5 2.3 7.6 5.4 3.8 4.7 6 9.2.7 1.5 1.5 2.5 1.1 1.7 1.4 2.5.8 2.4 1 5.6.6 7.1.1 13.5-.6 7.6-3.2 13-3 6.5-8.3 11.4-2 1.8-5 3-5 1.8-10 4-2.4 1.1-4.9 1.2h-6.6a.6.6 4.3 0 0-.6.5q-.1.8.5 1.4Zm-9.3-13.7q7.3 4.5 15.5 2.4 10.4-.7 16.4-8 4-5 6.1-11.5 2-6.2 1.2-12.6-1.6-12.8-12-21.6-5.3-4.5-12-5.2-3.7-.3-7.9 0-4.2.4-7.6 2.1-13 6.6-14.7 19.8-1 8.3 1 16.5 3 11.5 14 18Z"/><path d="M243 213.7q-6.9.3-11.8-1.4-2.7-1-3.7-1-11-6.6-14-18.1-2-8.2-1-16.5 1.7-13.2 14.7-19.8 3.4-1.7 7.6-2 4.2-.5 7.9 0 6.7.6 12 5.1 10.4 8.8 12 21.6.8 6.4-1.2 12.6-2 6.5-6 11.5-6 7.3-16.5 8Z"/><path fill="#454545" d="M300 195v25.8q-1.2-.2-1.2-1.4l.3-52.3q0-.5 0 0 .4 18.9.1 26.6 0 1.3.8 1.4Z"/><path fill="#fefefe" d="M73 241.3q1.4-.9 2.3.6 6.4 11.3 18.1 17.6 2.8 1.5 6.5 2l12.8 1.4 1.1.2q1.5.2 2.1-.7a4.5 4.5-85.4 0 1 2.1-1.8q13.7-6 18-19 .5-1.4.8-4.4.2-2.3.8-4.5a1.8 1.8 44.7 0 0 0-1q-.8-2.7-.8-5.6v-5.7q-.6-3-1.7-5.7-1-2.2-1.1-4.3-.2-2.4-.6-3.2-.8-1.4-2.4-2.3a2 1.6 3.6 0 1-.7-.6q-3.2-5.7-5.1-8.5-2-2.9-5.6-2.4a1.3 1.2-28.4 0 1-1-.3q-8.7-6.4-19.6-4.6-7 1.2-12 5-6.3 4.6-11.6 11.9-3.8 5.1-3.4 12.4V233q0 .5-.3.8-.3.3-1 .1-2-10.8 0-21.6.8-3.8 2.4-7.3 1.5-3.1 4.3-6.3 5.6-6.4 12.4-10.5 4-2.4 8.9-2.7 4-.2 8.6 0 5 .3 9.5 2.6l3.5 1.8q3.4 1.6 4.3 2.4 6.5 6.4 10.8 15.7 1 2 1.5 3.7.5 2 1.2 3.8 1 2.6 1 5.4 0 2.9.2 4l.4 4q1.2 12-4.6 21.6-4 6.5-10.4 10.1-6.6 3.8-14.5 4-6.7.2-14.5-1.2-3.3-.5-5.8-2.2-5.8-4-11.2-10.2-4.2-4.9-5.7-9.8Z"/><path fill="#ededed" d="M73 241.3q-1.7-3.5-2.2-7.3.6.2 1-.1.2-.3.2-.8v-15.3q-.4-7.3 3.4-12.4 5.3-7.3 11.5-12 5.1-3.7 12.1-5 11-1.7 19.7 4.7a1.3 1.2-28.4 0 0 .9.3q3.6-.5 5.6 2.4 1.9 2.8 5.1 8.4a2 1.6 3.6 0 0 .7.7q1.6.8 2.4 2.3.4.8.6 3.2 0 2.1 1 4.3 1.2 2.6 1.7 5.7v5.7q0 2.9.9 5.7a1.8 1.8 44.7 0 1 0 1q-.6 2.1-.8 4.4-.3 3-.8 4.4-4.3 13-18 19a4.5 4.5-85.4 0 0-2 1.7q-.7 1-2.1.8l-1.1-.2-12.9-1.5q-3.7-.4-6.5-2-11.7-6.2-18-17.5-1-1.5-2.4-.7ZM97.7 254q5.4 2.7 11 .5 17-2.5 19.5-19.3 1.8-11.3-2.7-22.2-1.8-5-5.3-8.8-8.5-9.3-20.8-8.5-3 .2-5.6 1.4-2.4 1-5 2.9-5.1 3.5-7.3 8.5-4.1 9.5-2.6 19.5.9 5.6 2.1 9.1 1.6 4.7 5 8.2 2.3 2.3 5.5 4.9 2.9 2.3 6.3 3.8Z"/><path d="M120.3 204.2q-.5.5-.1 1l.4.4 4.9 7.4q4.5 10.9 2.8 22.3-2.6 16.7-19.6 19.2l-11-.5q-3.4-1.5-6.2-3.8-3.2-2.6-5.4-5-3.5-3.4-5-8-1.3-3.6-2.2-9.2-1.5-10 2.6-19.5 2.2-5 7.2-8.5 2.7-1.8 5.1-3 2.5-1.1 5.6-1.3 12.3-.8 20.8 8.5Z"/><path fill="#454545" d="M120.3 204.2q3.5 3.9 5.2 8.8l-4.9-7.4-.4-.5q-.4-.4 0-.9Z"/><path fill="#8f8e8e" d="M227.5 211.3q1 0 3.8 1 4.8 1.6 11.7 1.4-8.3 2.1-15.5-2.4Z"/><path fill="#ededed" d="M171.4 224.8a.9.9 18.2 0 1 .6 1.2q-2 5.8-6.5 2a1 1 45.5 0 1 0-1.5q3-2.5 6-1.7Zm4.4 11q7.9 1.2 10.6-5.8.2-.5.5 0 1.2 1.5.8 3.3-.4 1.5-2 2.5-3.7 2.6-9 2-3.2-.5-5.7 1.5l-2.4 2q-1.5 1.4-2.6 2-3.8 1.7-7.6-1-.8-.6-.3-1.2a.9.6 28.6 0 1 .9-.2q7.2 2.8 10.8-4.3a2 2-76.2 0 1 1.9-1q1.7 0 4.1.3Z"/><path fill="#101010" d="M300 233.3v13.3q-.3.6-.8.2-4.9-3.6-10.5-4.5-1.2-.2-.3-1L299 231q.8-.9.6.3-.1 1 .3 2Z"/><path d="M300 251.8v13q-10-1.2-13.7 7.5a1.4 1.4-67.7 0 1-1.7.7q-10.4-4-14.6 5-.2.4-.5 0-6.2-9.7-14.8-18 13.5-7.6 27.1-15 2.4-1.2 6.9 0 5.8 1.6 10.5 5.3.3.2.8 1.5Z"/><path fill="#454545" d="m97.8 254 11 .5q-5.7 2.2-11-.5Zm183.6 46h-83.7q.5-.3 0-.4-14.8-1-29.7-.6l-10-.2a1 .8 13 0 0-.8.3q-.3.4-.3.9h-3.2q-.4-1.2 0-2.3l.7-2.1q.9-4 4.7-4.7l3.3-.6q12.7-3.7 22.1-5.8 22.1-4.8 41.8-12.7l7.6-3.6q3.8-1.8 8-2.9 1.2-.3 3.6-1.3 2-.8 3.7-.8 6.1.2 10.3 5 5.5 6.6 10 13.8a1.9 1.5 1.7 0 0 .8.7q2.3 1.1 3.6 3.4l7.4 12.2a1.6 1.3.7 0 0 .7.6q1.6.6-.6 1.1Z"/><path fill="#8f8e8e" d="M75.3 270.5q-.6-.6-.8-1.5 6.7-2 10.3-1.2 1.3.3.6 1.1a1.3 1 12.3 0 1-.9.4q-4 .1-7.8 1.4H76l-.8-.2Z"/><path fill="#101010" d="M300 269.6V283l-.3 1q-.2.4-.4 0-1.4-3-2.7-4-3.4-2.3-6 .7-1 1-1.4 4.2-.4 3.2-.8 4.4-1 3.3-2.9 6.2-1.2 1.8-2.2-.2l-2.7-4.7q-.8-1.4-3.2-4.5-2-2.5-3.5-5.4-1.3-2.6 1-4.3 4.5-3.1 10.2.6 3.7 2.5 3-1.9-.2-2 1.8-4.3 1.5-1.6 3.6-2.2 1.7-.4 4.2-.7 2.3-.2 2.3 1.6Z"/><path fill="#b8b8b7" d="M69.8 268.5q.2 2.6 2.5 3.7-3.4 1.1-6.9 1.6l-3.3.7q-2 .4-4.2-.2a.4.4-64.1 0 1-.1-.6q.8-1.1 2.2-1.5 4.5-1 8.8-2.5a1.4 1-2.2 0 0 .7-.6l.3-.6Z"/><path fill="#8f8e8e" d="M85.8 279.3q-.7-.1-1-.5 2.3-3 6-2.4a.9.8-4.7 0 1 .7.5q.6 1.8-1.2 1.6h-1.7l-2.9.8Z"/><path fill="#b8b8b7" d="M96.7 285.3 95 284q1.8-1.8 3.6-2.4 3.7-1.4 1.2 1a1.9 1.1 4.7 0 1-.8.5q-1.8.4-2.3 2.2Z"/><path fill="#454545" d="M296.7 300h-7.8q-1.1-.4-2.4-.4-1.7 0 2.1-2.5a2 2-11.2 0 0 .9-1.2l2.8-12.8q.5-2 2.2-1 2.9 1.8 3.3 5.2.5 4.9-.2 9.7v1.5q0 1-1 1.5Z"/><path fill="#8f8e8e" d="M86.8 283.8q2.5-.3 3.5 2-2.2-.3-3.5-2Z"/><path fill="#b8b8b7" d="m103 291.3 3.5.4a1.3.6 59.9 0 1 .8.5q.4.6 1.4.4h.6q2 .2 0 .7-3.4-.2-6.3-2Z"/><path d="M151 300h-39q-1.2-.7-.2-1.9l2.5-2.6 4.2-1.2q11.7.2 23.3-1.2l4.8-1q2.3-.6 4.6-.5a.6.6 88.3 0 1 .5.5q.4 4-.8 7.9Z"/><path fill="#8f8e8e" d="m118.5 294.3-4.3 1.2q0-.7.2-1.1a1 .8 15.8 0 1 .9-.3l3.2.2Z"/><path fill="#b8b8b7" d="M85.7 294.8q.2 1.5 2 1-1 .1-1.5 1-.2.6-.5.8-1.5 1.1-1-1.4.1-.7 1-1.4Z"/><path fill="#262626" d="M197.7 300h-40.8q0-.5.3-.9a1 .8 13 0 1 .8-.3q6.8.3 10 .2 14.9-.3 29.7.6.5 0 0 .4Z"/></svg>