<svg xmlns="http://www.w3.org/2000/svg" width="256" height="80" viewBox="0 0 256 80" fill="#3e3e3e"><g><path d="M20.337 53.06v-.212c0-.635-.636-1.059-1.165-.741-1.483.636-2.965 1.271-4.448 1.801-.847.317-.635 1.589.318 1.589h36.849c.424 0 .848.423.848.847v6.247c0 3.6-.741 5.399-3.283 6.564-2.436 1.06-5.188 1.165-8.471 1.06-.423 0-.741-.212-.847-.636-.53-1.589-1.376-3.494-2.118-5.083-.318-.528.105-1.271.741-1.271h4.024c.741 0 1.059-.212 1.059-.847v-1.058h-10.059c-.424 0-.848.423-.848.847v9.953c0 .424-.423.848-.847.848h-7.2c-.424 0-.848-.424-.848-.848v-9.741c0-.423-.423-.848-.847-.848h-12.811c-.423 0-.848-.423-.848-.847v-4.024c0-.53-.529-.953-1.058-.848-.742.213-1.483.424-2.33.636-.423.105-.847-.105-.953-.529-.636-1.589-1.8-3.706-2.859-5.4-.318-.529 0-1.164.53-1.271 6.988-1.376 13.554-3.917 18.636-7.094.741-.424.423-1.588-.424-1.588h-8.577c-.423 0-.847-.423-.847-.847v-3.283c0-.424.423-.847.847-.847h12.707c.424 0 .847.423.847.847v2.542l1.059-.954c.105-.105.317-.212.529-.212h7.625c.211 0 .423.106.529.212l.53.424c.529.423 1.376.106 1.376-.636v-1.376c0-.424.423-.847.847-.847h12.707c.423 0 .847.423.847.847v3.283c0 .423-.423.847-.847.847h-9c-.848 0-1.166 1.165-.424 1.588 5.824 3.389 12.601 5.4 19.484 6.459.635.106.953.848.529 1.377-1.271 1.8-2.435 3.918-3.388 5.718-.212.318-.529.529-.954.423-3.917-.847-8.259-2.223-12.494-4.023-.53-.212-1.165.212-1.165.741v.212c0 .424-.423.848-.847.848h-21.814c-.529-.002-.847-.32-.847-.849zm-9.636-18.53h-6.459c-.424 0-.847-.423-.847-.847v-10.589c0-.423.423-.847.847-.847h23.083v-1.377h-18.424c-.423 0-.848-.423-.848-.847v-4.765c0-.423.424-.848.848-.848h45.849c.424 0 .847.424.847.848v4.765c0 .423-.423.847-.847.847h-18.423v1.377h23.507c.423 0 .847.423.847.847v10.589c0 .424-.424.847-.847.847h-6.777c-.423 0-.847-.423-.847-.847v-4.977c0-.423-.424-.847-.847-.847h-14.19c-.423 0-.847.424-.847.847v7.73c0 .423-.424.847-.848.847h-7.306c-.423 0-.847-.423-.847-.847v-7.73c0-.423-.424-.847-.847-.847h-14.082c-.424 0-.847.424-.847.847v4.977c-.001.423-.424.847-.848.847zm2.33-1.377v-3.071c0-.423.424-.847.847-.847h11.224c.423 0 .847.424.847.847v3.071c0 .423-.424.847-.847.847h-11.224c-.423 0-.847-.424-.847-.847zm21.495 13.447c-.848-.635-1.589-1.163-2.224-1.799-.318-.317-.848-.317-1.166 0-.635.636-1.376 1.164-2.223 1.799-.635.53-.317 1.483.529 1.483h4.659c.849 0 1.167-1.058.425-1.483zm3.177-13.447v-3.071c0-.423.423-.847.847-.847h11.224c.424 0 .847.424.847.847v3.071c0 .423-.423.847-.847.847h-11.224c-.424 0-.847-.424-.847-.847zM109.389 37.494c-.529 0-.847.424-.847.953 1.377 13.978 4.13 24.672 7.306 24.672 1.059 0 1.694-2.859 2.012-9.318 0-.741.847-1.059 1.376-.636 1.906 1.589 4.341 3.178 6.354 4.024.317.105.529.529.529.847-1.377 12.178-4.553 14.931-11.224 14.931-10.165 0-14.719-15.672-16.413-34.837 0-.423-.424-.741-.847-.741h-30.707c-.424 0-.847-.423-.847-.847v-7.306c0-.424.423-.847.847-.847h29.86c.53 0 .848-.423.848-.847-.212-4.553-.318-9.212-.318-13.872 0-.424.424-.847.847-.847h8.471c.529 0 .847.423.847.847-.105 4.553-.105 9.318.106 13.872 0 .423.424.847.848.847h15.671c.423 0 .847.423.847.847v7.306c0 .424-.423.847-.847.847h-14.719v.105zm-42.143 25.096c7.624-1.06 18.636-2.859 28.801-4.554.53-.105.953.319.953.742l.529 6.883c0 .424-.212.847-.636.847-9.424 1.907-19.589 3.601-27.531 5.083-.424.106-.847-.211-.953-.635l-1.906-7.307c-.105-.53.213-1.059.743-1.059zm27.107-18.849v6.883c0 .425-.424.848-.847.848h-22.66c-.424 0-.847-.423-.847-.848v-6.883c0-.423.423-.847.847-.847h22.66c.53.001.847.424.847.847zm-1.059-20.012h-21.813c-.423 0-.847-.424-.847-.848v-6.671c0-.423.423-.847.847-.847h21.813c.423 0 .847.424.847.847v6.671c0 .53-.423.848-.847.848zm23.825 3.6c-1.694-2.647-4.765-6.035-7.73-8.577-.423-.318-.423-.953 0-1.271l4.977-3.706c.318-.212.742-.212 1.059 0 3.071 2.435 6.565 5.824 8.471 8.471.212.423.212.847-.212 1.165l-5.506 4.235c-.212.213-.847.107-1.059-.317zM187.747 38.024v11.966c0 .424-.424.847-.848.847h-7.73c-.423 0-.847-.423-.847-.847v-4.024c0-.423-.423-.847-.847-.847h-37.273c-.424 0-.847.424-.847.847v4.024c0 .424-.424.847-.847.847h-7.201c-.424 0-.847-.423-.847-.847v-11.966c0-.423.423-.847.847-.847h55.592c.424 0 .848.317.848.847zm-34.731-13.236h-21.284c-.424 0-.848-.424-.848-.847v-6.353c0-.424.424-.847.848-.847h21.284c.423 0 .847-.423.847-.848v-2.329c0-.424.423-.847.847-.847h7.941c.424 0 .848.423.848.847v2.329c0 .424.424.848.848.848h22.342c.424 0 .847.423.847.847v6.353c0 .423-.423.847-.847.847h-22.342c-.424 0-.848.424-.848.847v.953c0 .424.424.848.848.848h16.412c.424 0 .847.423.847.847v6.141c0 .423-.423.847-.847.847h-43.202c-.424 0-.848-.424-.848-.847v-6.141c0-.424.424-.847.848-.847h15.46c.423 0 .847-.424.847-.848v-.953c-.002-.53-.426-.847-.848-.847zm17.153 39.707c3.813 0 4.659-.847 5.295-5.505.105-.636.741-.954 1.271-.636 1.905 1.059 4.659 1.905 6.671 2.436.424.105.741.529.635.952-1.271 8.789-4.235 11.013-13.235 11.013h-14.931c-11.542 0-14.613-2.436-14.613-11.013v-14.506c0-.423.424-.846.849-.846h7.623c.423 0 .848.423.848.846v3.707c0 .529.529.952 1.058.847 6.354-1.376 12.495-3.177 16.731-5.083.317-.106.636-.106.847.106l5.823 5.189c.425.423.318 1.163-.211 1.376-6.988 2.647-15.672 4.553-23.508 5.93-.423.105-.74.423-.74.847v1.376c0 2.542.847 2.86 5.93 2.86h13.659v.104zM248.421 20.447c-1.589 4.129-3.918 7.73-6.565 10.588-.424.424-.317 1.165.212 1.377 3.071 1.376 6.565 2.435 10.377 3.071.636.106.953.847.529 1.376-1.376 1.588-2.965 3.812-3.917 5.612-.213.318-.53.529-.953.424-4.977-1.165-9.425-2.965-13.237-5.4-.316-.212-.635-.212-.847 0-2.541 1.588-5.294 2.965-8.26 4.023-.847.318-.635 1.589.318 1.589h3.282c.424 0 .848-.423.848-.848v-1.906c0-.423.424-.847.847-.847h6.883c.424 0 .847.424.847.847v1.906c0 .424.424.848.848.848h8.789c.423 0 .847.423.847.847v4.659c0 .425-.424.848-.847.848h-8.789c-.424 0-.848.423-.848.847v.106c0 .423.424.847.848.847h7.729c.424 0 .847.424.847.847v4.447c0 .425-.423.848-.847.848h-7.729c-.424 0-.848.424-.848.847v.106c0 .423.424.847.848.847h11.224c.424 0 .848.424.848.847v4.872c0 .423-.424.847-.848.847h-11.224c-.424 0-.848.423-.848.847v5.188c0 .424-.423.848-.847.848h-6.883c-.423 0-.847-.424-.847-.848v-4.977c0-.423-.424-.847-.848-.847h-9.105c-.529 0-.954.424-.848.953v.211c0 .424-.212.847-.635.953l-5.189 1.482c-.529.106-1.059-.211-1.059-.741-.106-.635-.106-1.376-.211-2.117-.106-.53-.53-.848-1.06-.741-5.718 1.377-11.542 2.753-16.412 3.918-.425.105-.953-.212-1.06-.636l-1.376-6.565c-.106-.423.211-.953.635-.953 2.224-.423 4.766-.847 7.518-1.376.424-.106.636-.423.636-.848v-9.953h-1.376v1.165c0 .423-.425.847-.848.847h-4.554c-.424 0-.847-.424-.847-.847v-25.627c0-.423.423-.847.847-.847h6.036c.424 0 .848-.424.848-.847v-9.212c0-.423.423-.847.847-.847h5.718c.424 0 .848.423.848.847v9.212c0 .423.423.847.847.847h6.035c.424 0 .848.423.848.847v1.165c4.659-3.282 8.577-7.941 10.906-13.024.212-.423.636-.529.953-.423l6.248 1.694c.529.105.74.741.529 1.165l-.318.741c-.317.529.105 1.165.741 1.165h6.247l1.06-.212c.212 0 .318 0 .529.106l4.447 2.012c.636-.001.848.529.636.953zm-47.439 21.707h.423c.425 0 .849-.424.849-.847v-8.789c0-.424-.424-.847-.849-.847h-.423c-.424 0-.847.423-.847.847v8.789c.001.423.318.847.847.847zm9.319-.848v-8.789c0-.424-.424-.847-.848-.847h-.529c-.424 0-.847.423-.847.847v8.789c0 .423.423.847.847.847h.529c.424.001.848-.423.848-.847zm10.589 8.26c-.424 0-.847-.424-.847-.847v-5.294l-1.06.317c-.211-.423-.424-.953-.741-1.482-.424-.741-1.588-.529-1.588.424v5.929c0 .425-.424.848-.848.848h-6.035c-.424 0-.848.423-.848.847v7.095c0 .529.529.953 1.059.847h.213c.423-.105.74-.529.635-1.059-.212-1.164-.424-2.224-.741-3.282-.106-.424.106-.848.636-.953l4.87-1.377c.424-.105.953.106 1.06.636.847 3.283 1.588 7.095 2.223 10.482v-2.437c0-.423.424-.847.849-.847h9.741c.423 0 .847-.423.847-.848v-.211c0-.424-.424-.847-.847-.847h-7.307c-.423 0-.848-.425-.848-.848v-4.447c0-.424.425-.847.848-.847h7.307c.423 0 .847-.424.847-.848v-.105c0-.424-.424-.848-.847-.848h-8.578zm-3.177-13.025c3.389-.953 6.671-2.118 9.53-3.812.528-.318.528-.954.211-1.377l-1.376-1.588c-.318-.424-.847-.424-1.271-.106-.952.847-1.905 1.694-2.858 2.33-.317.211-.741.211-1.059 0-.741-.741-1.906-1.588-2.965-2.436-.53-.423-1.377 0-1.377.636v5.294c.106.742.636 1.165 1.165 1.059zm14.401-10.8l1.482 1.482c.317.318.847.318 1.164 0 .529-.529.952-.953 1.377-1.482.529-.529.105-1.377-.636-1.377h-2.753c-.74 0-1.163.848-.634 1.377z"/></g></svg>
