<svg xmlns="http://www.w3.org/2000/svg" viewBox="0 0 889 215"><path d="m762 66 1-1 25-62h57l1 1-5 10v1h42v1l1 11-1 5-17 44 23 11-9 16h-1l-19-9h-1l-2 6-1 1h-86V84l1-1h33l1-1 5-11v-1l-9-4-1 1-2 4-1 1h-35v72l-1 1h-14v30l1 1 4-1h1l-2-24 1-1h14v1l3 25 1 1h24v-15h-21l-1-1v-17h22v-12h-26v-17h25l1-1v-6l1-1h58l1 1v6l1 1h27l1 1v16h-28l-1 1v11h24v17l-1 1h-23v14l1 1h30l1 1v16h-31l-1 1v20h-60v-20l-1-1h-21l-1 1v1l1 11-1 1h-21l-1-1-1-12v-1l-71 10-1-1-3-17 1-1 24-3v-37h-21V29h21V0l1-1h47l1 1v29h14l1 1v36zm64-32v-1h-11l-7 17 9 4 9-20zM714 47v-1h-5l-1 1v81h6V47zm23 0-1-1h-5v82h6V47zm-341 6h40l2 2v15l-2 1h-38v7l1 7 1 8v3l1 7v3l7 54 1 1h23l1 1 7 50-1 1h-85v-1L337 72l-1-1H229l-1-1V55l2-2h104l1-1-1-2v-7l-1-7-1-8-1-7-1-8-1-12 1-1h58l1 1 6 52h1zm194 4h58v18H465V57h58V37h-69V21l1-1h68V0h67v20h68l1 1v16h-69v20zM430 3l6 42 1 2h-33l-1-1-6-43 1-1h31l1 1zM141 22v8h73v57l-1 1-45-1h-1V47h-36l-1 1v44H89V47H53l-1 1v39l-1 1H6V30h72v-9H17l-1-1V4h187v17h-62v1zm183 3-1 1h-84l-1 1-1-2V9l1-1h85l1 1v16zM84 68l-1 1H58l-1-1V54h27v14zm78 0-1 1h-25l-1-1V54h27v14zM84 90H57V76l1-1h25l1 1v14zm78 0-1 1h-25l-1-1V76l1-1h25l1 1v14zm374 60v18l1 1h111l1 13 2 17v6l1 5-1 2H473l-1-1v-76h-19l-1-1V87l1-2h207l2 2v40l-1 1h-23l2 10-2 2h-1l-31 3-46 4-11 1-13 2zm-25-36 1 1h23l1 16 66-6h1v-21l-1-1h-90l-1 1v10zm-329 24v6H37l1-6H0v-1l52-41h68v1l-2 2v1h57l45 37v1h-38zm-94-12v1h46v-1l-23-20h-1l-22 20zm242-6v1h-95l-1-1v-16l1-1h95v17zM14 170v-17h192v58h-66l-14-32 1-1h19v-8h-23v44l-1 1H57l-1-1v-44H14zm326 20-109 13h-1l-3-18h1l111-14 1 1v18z"/></svg>
