<svg xmlns="http://www.w3.org/2000/svg" xml:space="preserve" viewBox="0 0 1024 259">
  <path d="M978.28 252.04h-67.95V228.9h-26.74c.38 4.79.76 9.49 1.17 14.63H858.8c-.48-4.82-.96-9.7-1.49-15.04-27.3 3.69-54.28 7.34-81.83 11.06-1-7.22-1.92-13.87-2.89-20.89 9.51-1.25 18.54-2.44 27.87-3.66v-42.59h-23.98V40.98h24.1V7.28h55.13v33.43h16.72V82.6c.35.1.69.21 1.04.31.71-1.51 1.49-3 2.13-4.55 8.73-21.23 17.51-42.44 26.08-63.74 1.31-3.25 2.86-4.5 6.49-4.46 18.33.21 36.66.09 55 .1 1.44 0 2.89.14 4.98.25-1.86 4.69-3.54 8.93-5.54 13.95h7.8c12.17 0 24.33.08 36.5-.05 3.09-.03 4.45.7 4.5 4.14.12 7.72-.54 15.07-3.63 22.4-5.87 13.93-10.97 28.19-16.64 42.95 8.87 4.08 17.54 8.08 26.89 12.39-3.53 6.04-6.91 11.84-10.6 18.15-7.8-3.64-15.41-7.19-22.91-10.69-.47.34-.92.49-.98.72-1.36 6.26-5.46 7.17-11.31 7.1-27.83-.32-55.66-.14-83.49-.14h-6.16v-19.27h9.79c8.67 0 17.33-.11 26 .06 2.76.06 4.29-.82 5.24-3.41 1.31-3.57 2.9-7.03 4.61-11.09-3.78-1.78-7.32-3.45-11.57-5.45-1.46 8.49-7.86 6.43-13.25 6.47-9.99.08-19.98.02-30.62.02v83.45h-16.77v35.74c2.14-.29 4.19-.56 6.97-.93-.67-9.42-1.33-18.78-2.02-28.44h16.97c.89 7.9 2.16 15.91 2.58 23.96.26 5.07 1.79 7.02 7.08 6.58 5.96-.49 12-.27 17.99-.05 3.37.12 4.65-.83 4.7-4.44.19-13.29.32-13.29-12.83-13.29h-12.18v-19.5h24.65v-13.75H880v-19.86h29.8c.28-3.21.53-5.95.78-8.83h67.22c.25 2.78.49 5.51.77 8.69h31.77v19.68h-31.67v13.83h26.47v19.73c-7.1 0-14.19.22-21.27-.08-4.2-.18-5.86.79-5.77 5.43.23 12.32.01 12.33 12.31 12.33h23.82v19.56h-35.97c.02 8.07.02 15.51.02 23.47zm-166.35-98.97h6.51V60.09h-6.51v92.98zm32.59.06V60.25h-6.84v92.88h6.84zM946.63 44.4c-4.38 0-7.53-.2-10.64.1-1.2.12-2.83 1.12-3.34 2.17-2.72 5.62-5.14 11.39-7.85 17.53 3.89 1.76 7.44 3.37 11.38 5.15 3.44-8.21 6.73-16.05 10.45-24.95zM543.08 247.79v-80.94c0-6.42-.01-6.42-6.63-6.42-3.83 0-7.68-.21-11.49.05-3.61.25-4.49-1.25-4.46-4.63.14-15.16.25-30.33-.05-45.49-.09-4.78 1.22-6.18 6.1-6.17 66.66.16 133.32.11 199.98.11 9.5 0 19 .08 28.5-.04 2.93-.04 4.26.85 4.24 3.95-.09 13.83-.05 27.66-.09 41.5 0 .79-.33 1.57-.64 2.95h-26.6c.73 4.71 1.35 8.75 2.09 13.52-39.55 3.65-78.73 7.27-118.61 10.96 0 6.69-.18 13.14.2 19.56.05.93 2.73 2.42 4.21 2.44 11.66.2 23.33.11 34.99.11H743.83c1.3 16.33 2.57 32.3 3.87 48.55-68.39-.01-136.15-.01-204.62-.01zm72.29-91.28c25.17-2.27 49.38-4.42 73.58-6.75 1.16-.11 3.07-1.73 3.1-2.7.26-7.28.14-14.58.14-22.04H588.01v12.62c7.62 0 14.93.25 22.21-.1 4.32-.21 5.5 1.38 5.21 5.42-.3 4.27-.06 8.57-.06 13.55zM506.46 249.5c-1.64.14-3.08.37-4.52.37-29.49.02-58.99-.06-88.48.1-3.96.02-5.04-1.42-5.46-5.08-5.36-46.49-10.86-92.96-16.32-139.44-.66-5.6-1.32-11.21-2.05-17.41h-6.1c-37.32 0-74.65-.08-111.97.1-4.49.02-5.98-1.3-5.52-5.65.31-2.97.35-6.03-.01-8.98-.59-4.85 1.59-5.77 5.98-5.75 34.32.15 68.65.08 102.98.08h12.25c-2.36-20.57-4.63-40.35-6.95-60.59h68.31c2.38 20.01 4.74 39.92 7.19 60.52h48.36c0 6.34.21 11.98-.2 17.58-.07.99-2.7 2.53-4.16 2.56-11.83.21-23.66.12-35.49.12h-6.02c.92 8.47 1.72 16.35 2.64 24.22 2.19 18.65 4.44 37.29 6.65 55.93.74 6.27 1.49 12.55 2.11 18.83.28 2.79 1.74 3.5 4.34 3.45 7.16-.13 14.34-.2 21.49.11 1.34.06 3.57 1.87 3.75 3.11 2.57 17.62 4.86 35.29 7.2 52.95.09.8 0 1.62 0 2.87zM236.63 11.68v19.3h-70.12v10.09h82.02v65.48h-51.9V61.17h-42.74v50.8H107.9V61.12H65.21v45.4H12.97V41.44h82.29V31.32H25.2V11.68h211.43zM601.62 6.96h75.36v22.42h78.28v19.91h-5.24c-22.5 0-45 .13-67.5-.11-4.54-.05-5.77 1.39-5.52 5.68.33 5.61.08 11.26.08 17.33h66.18v20.09c-1.95.09-3.88.25-5.82.25-65.16.01-130.33.01-195.49.01-6.58 0-6.59-.01-6.6-6.49-.01-4.31 0-8.62 0-13.48h66.08V49.41h-77.75V29.64h77.94V6.96zM70.53 201H22.8v-19.19h217.55v65.22c-1.47.1-2.92.29-4.36.29-21.99.02-43.97-.08-65.96.1-3.61.03-5.22-1.2-6.52-4.46-3.55-8.96-7.52-17.76-11.3-26.63-.63-1.49-1.13-3.04-2-5.38h22.12v-9.63h-26.47v50.4H70.53V201zM142.19 117.01c-.75 1.38-1.26 2.3-2.21 4.05h5.57c18.16 0 36.32-.13 54.47.13 2.86.04 6.25 1.16 8.46 2.94 14.8 11.9 29.34 24.1 43.96 36.22 1.1.92 2.13 1.92 4 3.62h-43.41c-.25 2.53-.45 4.6-.68 6.99H49.31c-.23-2.19-.45-4.27-.71-6.69H5.94c1.79-1.7 2.71-2.73 3.78-3.56 17.53-13.81 35.07-27.61 52.66-41.34 1.37-1.07 3.17-2.25 4.78-2.26 24.83-.15 49.64-.1 75.03-.1zm17 34.97c-9.64-8.84-18.27-16.76-27.09-24.85-9.04 8.25-17.73 16.18-27.22 24.85h54.31z"/>
  <path d="M264.43 217.39c43.07-5.21 85.57-10.36 128.52-15.56v21.18c-41.34 5.26-82.63 10.51-124.35 15.82-1.42-7.28-2.74-14.05-4.17-21.44zM272.91 124.9c2.23-.11 3.87-.25 5.5-.25 32.63-.01 65.26.08 97.89-.12 4.67-.03 6.23 1.36 5.77 5.9-.45 4.43 1.25 10.8-1.06 12.86-2.7 2.39-8.73 1.25-13.32 1.26-29.3.07-58.6.04-87.91.03-6.88 0-6.88-.01-6.88-7.1.01-3.99.01-7.97.01-12.58zM276.07 36.19c0-6.3-.1-12.07.11-17.84.03-.83 1.48-1.9 2.5-2.31 1.01-.41 2.3-.13 3.46-.13 28.96 0 57.92.12 86.88-.12 4.97-.04 6.08 1.54 5.99 6.22-.25 14.18-.06 14.18-14.47 14.18h-84.47zM457.68 8.84h14.75c6.32 0 12.63.11 18.95-.04 2.99-.07 3.95 1.18 4.35 4.01 2.08 14.79 4.36 29.56 6.54 44.34.09.61-.12 1.27-.22 2.28h-37.13c-2.39-16.67-4.75-33.17-7.24-50.59zM189.62 93.58v16.29h-29.19V93.58h29.19zM101.07 68.9v16H72.08v-16h28.99zM160.16 84.88c0-4.57-.19-9.03.14-13.45.08-1.05 1.84-2.79 2.87-2.81 8.6-.23 17.21-.13 26.29-.13v16.39h-29.3zM100.89 109.88h-28.8V93.51h28.8v16.37z"/>
</svg>
