<svg xmlns="http://www.w3.org/2000/svg" viewBox="0 0 120 120">
  <circle cx="60" cy="60" r="60"/>
  <path fill="#fff" d="M99.91 56.4c0-17.86-17.9-32.39-39.91-32.39-22 0-39.91 14.53-39.91 32.39 0 16.01 14.2 29.42 33.38 31.95 1.3.28 3.07.86 3.52 1.97.4 1.01.26 2.59.13 3.61l-.57 3.42c-.17 1.01-.8 3.95 3.46 2.15 4.26-1.79 22.98-13.53 31.36-23.17 5.77-6.35 8.54-12.79 8.54-19.93"/>
  <g>
    <path d="M51.89 47.77h-2.8c-.43 0-.78.35-.78.78v17.39c0 .43.35.78.78.78h2.8c.43 0 .78-.35.78-.78v-17.4c0-.42-.35-.77-.78-.77M71.16 47.77h-2.8c-.43 0-.78.35-.78.78v10.33l-7.97-10.76c-.02-.03-.04-.05-.06-.08l-.01-.01-.05-.05c-.01 0-.01-.01-.01-.01-.01-.01-.03-.02-.04-.03l-.02-.02c-.01-.01-.03-.02-.04-.03-.01-.01-.02-.01-.02-.01a.076.076 0 0 0-.04-.02c-.01 0-.02-.01-.02-.01-.01-.01-.03-.01-.04-.02-.01 0-.02-.01-.03-.01-.02-.01-.03-.01-.05-.02-.01 0-.02 0-.03-.01-.02 0-.03-.01-.04-.01h-.03c-.01 0-.03 0-.04-.01H56.17c-.43 0-.78.35-.78.78v17.39c0 .43.35.78.78.78h2.8c.43 0 .78-.35.78-.78V55.61l7.98 10.78c.05.08.12.14.2.19 0 0 .01 0 .01.01.02.01.03.02.05.03.01 0 .01.01.02.01.01.01.02.01.04.02.01.01.02.01.04.02.01 0 .02.01.02.01.02.01.04.01.05.02h.01c.06.02.13.03.2.03h2.8c.43 0 .78-.35.78-.78V48.54a.794.794 0 0 0-.79-.77M45.14 62.35h-7.61V48.54c0-.43-.35-.78-.78-.78h-2.8c-.43 0-.78.35-.78.78v17.39c0 .21.08.4.22.54l.01.01.01.01a.8.8 0 0 0 .54.22h11.18c.43 0 .78-.35.78-.78v-2.8a.766.766 0 0 0-.77-.78M86.62 52.12c.43 0 .78-.35.78-.78v-2.8c0-.43-.35-.78-.78-.78H75.44c-.21 0-.4.08-.54.22l-.01.01c0 .01-.01.01-.01.01a.8.8 0 0 0-.22.54v17.39c0 .21.08.4.22.54l.01.01.01.01a.8.8 0 0 0 .54.22h11.18c.43 0 .78-.35.78-.78v-2.8c0-.43-.35-.78-.78-.78h-7.61v-2.94h7.61c.43 0 .78-.35.78-.78v-2.8c0-.43-.35-.78-.78-.78h-7.61v-2.94h7.61z"/>
  </g>
</svg>
