<svg xmlns="http://www.w3.org/2000/svg" viewBox="0 0 120 120" fill="currentColor">
  <path d="M84.7 52.8c1.2 0 2.1 1 2.1 2.1 0 1.2-.9 2.1-2.1 2.1h-5.9v3.8h5.9c1.2 0 2.1.9 2.1 2.1 0 1.2-.9 2.1-2.1 2.1h-8c-1.2 0-2.1-1-2.1-2.1v-16c0-1.2.9-2.1 2.1-2.1h8c1.2 0 2.1 1 2.1 2.1 0 1.2-.9 2.1-2.1 2.1h-5.9v3.8h5.9zM71.8 62.9c0 .9-.6 1.7-1.4 2-.3.1-.5.1-.7.1-.7 0-1.3-.3-1.7-.8l-8.2-11.1V63c0 1.2-.9 2.1-2.1 2.1-1.2 0-2.1-1-2.1-2.1V47c0-.9.6-1.7 1.4-2 .2-.1.5-.1.7-.1.7 0 1.3.3 1.7.9L67.7 57v-9.9c0-1.2.9-2.1 2.1-2.1 1.2 0 2.1 1 2.1 2.1v15.8zm-19.3 0c0 1.2-.9 2.1-2.1 2.1-1.2 0-2.1-1-2.1-2.1v-16c0-1.2.9-2.1 2.1-2.1 1.2 0 2.1 1 2.1 2.1v16zm-8.2 2.2h-8c-1.2 0-2.1-1-2.1-2.1V47c0-1.2 1-2.1 2.1-2.1 1.2 0 2.1 1 2.1 2.1v13.9h5.9c1.2 0 2.1.9 2.1 2.1 0 1.1-1 2.1-2.1 2.1m55.9-10.8c0-18-18.1-32.7-40.2-32.7S19.8 36.3 19.8 54.3c0 16.1 14.3 29.6 33.6 32.2 1.3.3 3.1.9 3.5 2 .4 1 .3 2.6.1 3.6l-.5 3.4c-.2 1-.8 4 3.5 2.2 4.3-1.8 23.2-13.7 31.6-23.4 5.9-6.3 8.6-12.8 8.6-20"/>
</svg>
