<svg xmlns="http://www.w3.org/2000/svg" viewBox="0 0 120 120"><defs><style>.cls-1{fill:#00b900}</style></defs><g id="レイヤー_2" data-name="レイヤー 2"><g id="LINE_LOGO" data-name="LINE LOGO"><g id="FULL_COLOR_ICON" data-name="FULL COLOR ICON"><rect width="120" height="120" class="cls-1" rx="26"/><g id="TYPE_A" data-name="TYPE A"><path fill="#fff" d="M103.5 54.72c0-19.55-19.6-35.45-43.7-35.45s-43.69 15.9-43.69 35.45c0 17.53 15.55 32.21 36.54 35 1.43.31 3.36.94 3.85 2.16a8.93 8.93 0 0 1 .14 4L56 99.55c-.19 1.1-.88 4.32 3.78 2.35S85 87.09 94.13 76.54c6.33-7 9.37-14 9.37-21.82"/><path d="M50.93 45.28h-3.07a.85.85 0 0 0-.85.85v19a.85.85 0 0 0 .85.85h3.07a.85.85 0 0 0 .85-.85v-19a.85.85 0 0 0-.85-.85M72 45.28h-3a.85.85 0 0 0-.85.85v11.31l-8.77-11.79-.06-.08-.05-.05h-3.4a.85.85 0 0 0-.85.85v19a.85.85 0 0 0 .85.85h3.06a.86.86 0 0 0 .86-.85V53.86l8.73 11.79a.63.63 0 0 0 .22.21h.11A.78.78 0 0 0 69 66h3a.85.85 0 0 0 .85-.85v-19a.85.85 0 0 0-.85-.85M43.54 61.25h-8.33V46.13a.85.85 0 0 0-.85-.85H31.3a.85.85 0 0 0-.85.85v19a.87.87 0 0 0 .23.59.87.87 0 0 0 .59.23h12.27a.85.85 0 0 0 .85-.85v-3a.85.85 0 0 0-.85-.85M89 50a.85.85 0 0 0 .85-.85v-3.02a.85.85 0 0 0-.85-.85H76.7a.85.85 0 0 0-.59.24.83.83 0 0 0-.24.59v19a.83.83 0 0 0 .24.59.85.85 0 0 0 .59.24H89a.85.85 0 0 0 .85-.85V62.1a.85.85 0 0 0-.85-.85h-8.38V58H89a.85.85 0 0 0 .85-.85v-3.04a.85.85 0 0 0-.85-.85h-8.38V50z" class="cls-1"/></g></g></g></g></svg>