<svg xmlns="http://www.w3.org/2000/svg" viewBox="0 0 500 500" fill="currentColor">
  <path d="M278.2 258.1c-9.07-10.13-21.67-15.8-37.8-17 14.4-3.9 24.8-9.6 31.4-17.3s9.8-17.8 9.8-30.7A54.98 54.98 0 0 0 275 166a48.711 48.711 0 0 0-19.2-18.6c-7.3-4-16-6.9-26.2-8.6s-28.1-2.4-53.7-2.4h-62.3v227.2h64.2c25.8 0 44.4-.87 55.8-2.6 11.4-1.8 20.9-4.8 28.6-8.9a52.53 52.53 0 0 0 21.9-21.4c5.1-9.2 7.7-19.9 7.7-32.1 0-16.9-4.5-30.4-13.6-40.5zm-107-71.4h13.3c15.4 0 25.73 1.73 31 5.2 5.3 3.5 7.9 9.5 7.9 18s-2.9 14-8.5 17.4-16.1 5-31.4 5h-12.3v-45.6zM224 317c-6.1 3.7-16.5 5.5-31.1 5.5h-21.7V273h22.6c15 0 25.4 1.9 30.9 5.7s8.4 10.4 8.4 20-3 14.7-9.2 18.4l.1-.1zm133.6-10.9c-15.91 0-28.8 12.89-28.8 28.8s12.89 28.8 28.8 28.8 28.8-12.89 28.8-28.8-12.89-28.8-28.8-28.8zm-25-169.7h50v151.52h-50V136.4z"/>
</svg>
