<svg xmlns="http://www.w3.org/2000/svg" viewBox="0 0 300 300">
  <g fill="none" stroke-width="2">
    <path stroke="#878787" d="m300 64.31-.61 2.89q-.07.36-.08-.01-.08-2.84-1.04-5.47l-1.04-2.86q-2.6-8.25-5.53-16.38-2.07-5.75-3.79-12.14-1.4-5.19-3.47-12.28-1.37-4.67-3.21-8.54-1.84-3.86-4.11-5.06-3.03-1.6-7.18-.27-10.86 3.46-15.25 5.25-1.71.69-2.78 1.33-2.57 1.55-2.6 1.56-8.78 4.21-16.75 9.75-4.74 3.3-11.18 9.38-8.65 8.18-10.69 9.98-12.53 11.02-20.38 20.68a1.38 1.38-76.3 0 1-.79.48q-6.23 1.24-11.27.9-2.55-.17-4.5.33-2.5.65-2.55.66-18.31 3.44-35.11 11.48-.84.41-3.34 1.13-1.48.43-3.31 1.34-8.45 4.16-14.56 8.01-3.94 2.48-6.72 3.11-6.31 1.42-12.65-.15-1.73-.43-4.62-.79-1.91-.23-4.64-.87-7.5-1.76-19.49-2.57-20.53-1.41-41.01.36" vector-effect="non-scaling-stroke"/>
    <path stroke="#646464" d="m25.75 85.54-6.04.71" vector-effect="non-scaling-stroke"/>
    <path stroke="#878787" d="M19.71 86.25q-2.66-.14-5.29.22-.08.01-3.36.06-2.61.04-3.37 2.91-1.89 7.08-1.09 14.55.32 2.99 2.66 14.16 1.83 8.77 4.61 17.3.21.63 2.31 8.23 1.15 4.15 3.14 8.01 5.53 10.73 11.75 21.08.08.13 5.04 8.7 3.95 6.81 8.08 11.59 3.43 3.98 5.21 8.32 1.16 2.84 1.59 8.95 1.04 14.87 5.45 29.05 1.32 4.22 4.34 10.87 2.42 5.35 4.68 10.77 1.68 4.03 4.33 7.48" vector-effect="non-scaling-stroke"/>
    <path stroke="#646464" d="m69.79 268.5-.28.57a1.36 1-2.2 0 1-.74.59q-4.31 1.47-8.73 2.56-1.47.37-2.29 1.53a.36.36-64.1 0 0 .19.56q2.13.64 4.2.2 3.21-.68 3.29-.69 3.49-.47 6.82-1.61" vector-effect="non-scaling-stroke"/>
    <path stroke="#878787" d="M72.25 272.21q4.06 3.5 8.08 7.03.25.23.75.58 1.69 1.18-1.02 1.03a1.98 1.4 24.5 0 0-.94.18l-12.18 6.47a.38.38-37.1 0 0-.09.61q1.78 1.67 3.84.33 5.74-3.76 11.12-5.7 1.4-.5 2.55-.16 1.29.38 2.39 1.21" vector-effect="non-scaling-stroke"/>
    <path stroke="#504f4f" d="M86.75 283.79q1.34 1.67 3.5 1.92" vector-effect="non-scaling-stroke"/>
    <path stroke="#878787" d="M90.25 285.71q1.86.47.96 1.48-.65.74-.71.82-2.37 3.39-4.79 6.74" vector-effect="non-scaling-stroke"/>
    <path stroke="#646464" d="M85.71 294.75q-.89.79-1.02 1.44-.52 2.55.99 1.44.28-.21.54-.78.42-.92 1.53-1.06" vector-effect="non-scaling-stroke"/>
    <path stroke="#878787" d="M87.75 295.79q2.92-2.43 4.94-6.35 1.09-2.12 2.49-.58a1.8 1.11-2.6 0 0 .81.45l7.01 1.98" vector-effect="non-scaling-stroke"/>
    <path stroke="#646464" d="M103 291.29q2.87 1.77 6.25 2" vector-effect="non-scaling-stroke"/>
    <path stroke="#878787" d="M109.25 293.29q.39.15.56.41a1.03.45-55 0 1-.18.89l-3.19 5.41" vector-effect="non-scaling-stroke"/>
    <path stroke="#a2a2a2" d="M300 112.31q-.9-3.87-.54-7.81" vector-effect="non-scaling-stroke"/>
    <path stroke="#929292" d="M299.46 104.5q.5-2.47.26-5-1.15-12.38-2.59-24.74-1.55-13.3-4.94-22.45-6.44-17.37-9.45-31.13-.81-3.66-1.69-5.04-1.71-2.69-4.71-3.11-2.73-.37-6.89 1.68-5.28 2.61-9.67 6.58-3.56 3.23-3.65 3.31-4.91 4.23-6.44 6.09-14.7 17.82-18.25 21.75-4.72 5.22-7.04 11.42-.85 2.25 1.18 3.53 1.7 1.08 3.54 1.31 2.67.33 2.74.34 13.07 2.9 26.7 9.15 11.44 5.24 20.11 9.9 3.65 1.97 7.66 5.01 3.65 2.77 7.36 5.46 1.52 1.11 5.56 5.98" vector-effect="non-scaling-stroke"/>
    <path stroke="#a2a2a2" d="M299.25 104.54q-.32 1.26-1.26 1.13-.56-.08-1.11-.81-6.75-8.85-16.94-14.3-16.78-8.96-32.24-15.53-9.61-4.08-19.91-5.44-2.56-.34-5.98-1.15-2.99-.7-6.06-.98" vector-effect="non-scaling-stroke"/>
    <path stroke="#c7c6c6" d="M215.75 67.46q.44-.77 1.5-.5" vector-effect="non-scaling-stroke"/>
    <path stroke="#a2a2a2" d="M217.25 66.96q2.15.53 3.21-1.26 3.95-6.65 8.63-12.78.55-.72 9.62-12.03 4.21-5.24 8.56-10.37 2.27-2.68 5.2-5.31 2.77-2.49 5.49-5.02 4.61-4.28 7.73-6.07 4.24-2.43 9.09-3.96a1.67 1.63-37.2 0 1 1.35.17q1.44.9 2.54-.2a.66.62 51 0 0 .06-.81q-2.34-3.61-6.48-3.07-7.46.98-15.54 4.75" vector-effect="non-scaling-stroke"/>
    <path stroke="#c7c6c6" d="M256.71 11q-1.88-.03-2.96 1.46" vector-effect="non-scaling-stroke"/>
    <path stroke="#a2a2a2" d="M253.75 12.46q-3.55 2.4-4.94 3.1-16.58 8.38-27.12 18.38-9.5 9-19.07 17.93-5.6 5.22-9.61 11.71a.41.4 25.8 0 0 .21.59l4.53 1.62" vector-effect="non-scaling-stroke"/>
    <path stroke="#dbdbdb" d="m197.75 65.79-1.25.42" vector-effect="non-scaling-stroke"/>
    <path stroke="#a2a2a2" d="M196.5 66.21q-11.36-.44-22.69.42-1.41.1-3.09.46-1.54.33-3.09.6-2.54.44-4.54 1.11-23.34 7.8-32.78 12.01-6.11 2.73-15.83 9.5-1.59 1.11-8.39 5.24-3.87 2.35-8.9 6.14-12.24 9.2-19.89 17.16-.08.08-3.23 3.16-3.1 3.03-5.38 7.18-6.22 11.27-10.38 21.62-2.16 5.39-2.92 10.12-1.2 7.47-1.22 7.58-1.23 6.33-1.42 13.24-.05 1.98-.51 4.21-.57 2.75-.6 4.15-.06 2.91.34 5.79.57 4.01.67 5.73.68 11.52 2.77 22.83 1.84 9.99 5.47 19.19 3.63 9.19 8.55 18.66 2.15 4.15 5.06 6.73" vector-effect="non-scaling-stroke"/>
    <path stroke="#c7c6c6" d="M74.5 269.04q.17.86.75 1.5" vector-effect="non-scaling-stroke"/>
    <path stroke="#a2a2a2" d="M75.25 270.54q3.88 5.07 9.46 8.21" vector-effect="non-scaling-stroke"/>
    <path stroke="#c7c6c6" d="M84.71 278.75q.42.45 1.04.54" vector-effect="non-scaling-stroke"/>
    <path stroke="#a2a2a2" d="M85.75 279.29q4.09 3.31 9.21 4.71" vector-effect="non-scaling-stroke"/>
    <path stroke="#dbdbdb" d="m94.96 284 1.75 1.25" vector-effect="non-scaling-stroke"/>
    <path stroke="#a2a2a2" d="M96.71 285.25q.17.26.38.48.2.2.53.28 4.75 1.07 9.3 2.85 5.36 2.1 10.99 2.57 4.18.35 11.18.34 5.56-.02 12.16-1.02 30.15-4.59 53-10.25 18.82-4.67 32.89-10.92 5.81-2.59 7.15-3.14 5.89-2.43 7.27-2.88 6.39-2.04 13.75-6.75 5.34-3.41 15.6-8.43 5.91-2.89 11.38-6.5 4.32-2.85 9.19-7.62 4.28-4.2 8.52-8.45" vector-effect="non-scaling-stroke"/>
    <path stroke="#878787" d="M300 233.31q-.44-.98-.28-1.88.2-1.18-.66-.36l-10.71 10.21q-.9.85.34 1.04 5.61.85 10.49 4.5.49.36.82-.26" vector-effect="non-scaling-stroke"/>
    <path stroke="#7f7f7f" d="M300 251.81q-.54-1.28-.81-1.5-4.72-3.69-10.49-5.29-4.51-1.24-6.89.04-13.62 7.33-27.11 14.87a.09.09-37.8 0 0-.02.14q8.61 8.21 14.86 17.94.27.42.48-.03 4.18-8.94 14.54-4.93a1.39 1.38-67.7 0 0 1.77-.74q3.75-8.71 13.67-7.5" vector-effect="non-scaling-stroke"/>
    <path stroke="#878787" d="M300 269.56q-.04-1.79-2.25-1.56-2.56.26-4.29.71-2.08.54-3.58 2.22-2 2.22-1.71 4.28.6 4.41-3.1 1.94-5.69-3.79-10.11-.62-2.36 1.69-1.03 4.27 1.49 2.9 3.48 5.43 2.39 3.04 3.2 4.42 1.38 2.33 2.65 4.8 1.02 1.99 2.26.12 1.89-2.87 2.92-6.19.35-1.15.76-4.33.41-3.17 1.36-4.24 2.67-2.98 6-.62 1.38.97 2.73 3.86.21.44.37-.02l.34-.97" vector-effect="non-scaling-stroke"/>
    <path stroke="#a2a2a2" d="M296.69 300q.93-.54.91-1.55-.01-1.27.01-1.4.7-4.89.14-9.8-.38-3.33-3.23-5.09-1.77-1.09-2.22.95l-2.83 12.76a2.02 1.96-11.2 0 1-.85 1.23q-3.82 2.56-2.13 2.5 1.29-.04 2.45.4M281.44 300q2.2-.49.6-1.14a1.62 1.28.7 0 1-.74-.6q-3.76-6.05-7.39-12.18-1.34-2.28-3.64-3.43a1.87 1.54 1.7 0 1-.72-.63q-4.54-7.24-10.07-13.74-4.14-4.86-10.3-5.07-1.63-.06-3.71.8-2.37.97-3.66 1.3-4.12 1.06-7.92 2.88-7.14 3.42-7.59 3.6-19.7 7.9-41.8 12.71-9.42 2.05-22.14 5.78-.11.03-3.27.64-3.83.73-4.72 4.66-.08.36-.7 2.09-.42 1.14.02 2.33" vector-effect="non-scaling-stroke"/>
    <path stroke="#7f7f7f" d="M150.94 300q1.12-3.9.79-7.94a.55.55 88.3 0 0-.54-.51q-2.32-.04-4.54.47-4.19.97-4.89 1.06-11.58 1.45-23.26 1.21" vector-effect="non-scaling-stroke"/>
    <path stroke="#c7c6c6" d="m118.5 294.29-3.2-.22a1.05.79 15.8 0 0-.85.33q-.32.43-.2 1.06" vector-effect="non-scaling-stroke"/>
    <path stroke="#7f7f7f" d="M114.25 295.46q-1.23 1.32-2.41 2.65-1.05 1.18.1 1.89" vector-effect="non-scaling-stroke"/>
    <path stroke="#dbdbdb" d="M109.25 293.29q1.98-.46.03-.75-.23-.04-.55.02-.99.19-1.48-.39a1.3.64 59.9 0 0-.75-.5l-3.5-.38M87.75 295.79q-1.85.54-2.04-1.04" vector-effect="non-scaling-stroke"/>
    <path stroke="#c7c6c6" d="M90.25 285.71q-.97-2.23-3.5-1.92" vector-effect="non-scaling-stroke"/>
    <path stroke="#dbdbdb" d="M72.25 272.21q-2.28-1.12-2.46-3.71M19.71 86.25q3.16.5 6.04-.71M9.21 92q-2.64 5.71.01 11.36.08.18.15.95l.25 2.9q.04.46.09-.01.24-2.05.33.55" vector-effect="non-scaling-stroke"/>
    <path stroke="#929292" d="M10.04 107.75q-.07 1.91.9 7.06 5.19 27.71 18.06 50.45.03.04 2.25 4.19 1.13 2.11 2.5 4.05 2.98 4.21 3.98 5.87 4.6 7.6 10.04 14.22a.85.85 39.3 0 0 1.41-.14q1.3-2.44 1.07-5.2-.16-1.95.42-5.97 1.35-9.28 2.83-18.53.13-.82.58-1.87.41-.95.51-1.85.42-3.74 1.73-7.23 1.94-5.19 1.99-5.33 4.17-12.44 11.4-23.42.05-.07 2.32-2.91 2.56-3.2.68-6.18-1.15-1.82-5.12-4.1-10.4-5.97-24.34-10.61-8.34-2.78-15.56-2.66-1.17.02-3.91.7-1.96.49-4.03.46-3.8-.05-6.75 2.29" vector-effect="non-scaling-stroke"/>
    <path stroke="#dbdbdb" d="M13 101.04q-1.05.05-2-.33" vector-effect="non-scaling-stroke"/>
    <path stroke="#a2a2a2" d="M11 100.71q1.3-3.87 4.5-3.96 5.13-.15 10.19-.94 2.45-.38 7.62.44 3.52.57 7.44 1.66 18.8 5.26 35.43 16.06a2.49 2.48 44.8 0 0 2.71 0q9.78-6.39 18.9-13.61 1.36-1.07 3.25-2.91 1.41-1.38 3.19-2.97.56-.5-.18-.58-5-.57-9.1-1.57-1.57-.38-4.47-.64-2.28-.21-4.46-1-3.8-1.39-7.75-2.15-2.99-.58-7.97-.63-9.94-.11-19.88-.52-8.83-.37-16.33.19-11.34.83-22.66 1.84-1.16.1-1.64.7-.61.74-.58 1.88" vector-effect="non-scaling-stroke"/>
    <path stroke="#7f7f7e" d="M11 100.71q-.82.71-1-.21-.69-3.57-.79-8.5" vector-effect="non-scaling-stroke"/>
    <path stroke="#6f6f6f" d="M13 101.04q-2.44 2.9-2.96 6.71" vector-effect="non-scaling-stroke"/>
    <path stroke="#6a6a6a" d="m217.25 66.96-15-.67" vector-effect="non-scaling-stroke"/>
    <path stroke="#7f7f7e" d="m202.25 66.29-4.5-.5" vector-effect="non-scaling-stroke"/>
    <path stroke="#6a6a6a" d="M253.75 12.46q1.7-.29 2.96-1.46" vector-effect="non-scaling-stroke"/>
    <path stroke="#363636" d="m299.46 104.5-.21.04" vector-effect="non-scaling-stroke"/>
    <path stroke="#a4a3a3" d="M202.25 66.29q-.96.34-2 .25" vector-effect="non-scaling-stroke"/>
    <path stroke="#7f7f7e" d="m200.25 66.54-3.75-.33" vector-effect="non-scaling-stroke"/>
    <path stroke="#6a6a6a" d="m200.25 66.54 15.5.92" vector-effect="non-scaling-stroke"/>
    <path stroke="#454545" d="M300 195.06q-.8-.04-.75-1.31.28-7.78-.18-26.68-.01-.51-.01-.01-.3 34.93-.25 52.38.01 1.14 1.19 1.37" vector-effect="non-scaling-stroke"/>
    <path stroke="#7f7f7e" d="M96.71 285.25q.51-1.78 2.29-2.17a1.86 1.12 4.7 0 0 .85-.42q2.44-2.46-1.29-1.1-1.8.66-3.6 2.44" vector-effect="non-scaling-stroke"/>
    <path stroke="#6a6a6a" d="M85.75 279.29q1.41-.41 2.83-.77.64-.16 1.72-.03 1.83.21 1.2-1.58a.86.81-4.7 0 0-.69-.55q-3.72-.49-6.1 2.39M75.25 270.54q.37.14.71.22.32.06.7-.06 3.81-1.28 7.84-1.43a1.32.95 12.3 0 0 .86-.37q.71-.84-.61-1.15-3.57-.83-10.25 1.29" vector-effect="non-scaling-stroke"/>
    <path stroke="#999" d="m231.5 224.54 5.25.42" vector-effect="non-scaling-stroke"/>
    <path stroke="#a2a2a2" d="M236.75 224.96q12.99 1.04 24.81-6.65 2.89-1.88 4.57-2.98 2.11-1.4 3.32-3.54 1.66-2.92 4.61-8.48 2.04-3.84 2.88-7.58.63-2.78 1.11-7.96.95-10.24-3-19.66-1.24-2.98-4-7.06-3.45-5.11-4.74-6.61-4.35-5.08-9-6.75-23.47-8.46-42.07 4.74-6.92 4.91-10.21 10.39-3.75 6.26-4.28 14.43-1.26 19.48 11.88 36.71 1.21 1.59 2.79 2.81 6.57 5.09 16.08 7.77" vector-effect="non-scaling-stroke"/>
    <path stroke="#f6f6f6" d="M236.75 224.96q-.67-.56-.56-1.4a.6.55 4.3 0 1 .61-.48q3.32.08 6.63 0 2.46-.05 4.89-1.16 4.91-2.24 9.96-4.11 3.09-1.14 5-2.93 5.27-4.92 8.33-11.33 2.64-5.5 3.21-13.01.48-6.44-.07-13.54-.25-3.2-1.05-5.6-.28-.85-1.43-2.46-.75-1.06-1.46-2.5-2.2-4.51-6.03-9.23-2.56-3.16-7.53-5.46-12.66-5.86-25.05-3.23-8.73 1.85-15.26 6.32-7.08 4.86-10.88 13.22-.8 1.78-1.27 5.26-.17 1.27-.87 5.31-1.17 6.71.83 13.87 2.62 9.4 7.56 16.44 1.49 2.11 1.91 3.82.14.54.4.73.39.27.91.17a1.56.85-24.2 0 1 .92.07q4.38 2.2 8.26 5.17 1.88 1.45 3.4 2.27 1.82.98 3.66 1.93.51.26.75.54.75.87-1.02.9" vector-effect="non-scaling-stroke"/>
    <path stroke="#999" d="M70.79 234q.53 3.79 2.17 7.25" vector-effect="non-scaling-stroke"/>
    <path stroke="#a2a2a2" d="M72.96 241.25q1.53 4.99 5.73 9.81 5.37 6.19 11.22 10.19 2.5 1.71 5.75 2.29 7.89 1.4 14.59 1.21 7.83-.22 14.49-4.01 6.43-3.66 10.38-10.16 5.81-9.57 4.61-21.6-.2-2-.46-4-.14-1.09-.17-3.98-.03-2.81-1.03-5.43-.64-1.68-1.21-3.77-.47-1.71-1.42-3.74-4.33-9.22-10.88-15.62-.83-.82-4.21-2.43-.11-.05-3.5-1.78-4.52-2.31-9.53-2.6-4.63-.26-8.65-.01-4.81.3-8.86 2.69-6.85 4.05-12.4 10.46-2.79 3.23-4.27 6.33-1.66 3.48-2.42 7.34-2.11 10.79.07 21.56" vector-effect="non-scaling-stroke"/>
    <path stroke="#f6f6f6" d="M72.96 241.25q1.49-.85 2.35.69 6.35 11.25 18.09 17.53 2.81 1.51 6.54 1.97 6.4.8 12.81 1.44.12.01 1.1.18 1.47.26 2.08-.71a4.55 4.53-85.4 0 1 2.08-1.78q13.67-5.88 18.03-18.97.48-1.43.75-4.42.21-2.25.82-4.45a1.78 1.76 44.7 0 0-.01-.96q-.82-2.81-.81-5.69.02-5.05-.08-5.67-.47-3.08-1.65-5.72-.97-2.19-1.09-4.32-.14-2.37-.56-3.13-.81-1.49-2.4-2.33a1.92 1.6 3.6 0 1-.7-.66q-3.23-5.64-5.12-8.44-1.95-2.88-5.63-2.44a1.3 1.2-28.4 0 1-.9-.23q-8.73-6.49-19.66-4.65-6.98 1.17-12.06 4.95-6.28 4.67-11.57 11.94-3.73 5.13-3.37 12.37.12 2.42 0 15.31 0 .56-.26.79-.36.32-.95.15" vector-effect="non-scaling-stroke"/>
    <path stroke="#999" d="M171.44 224.83q-2.85-.86-5.89 1.68a.95.94 45.5 0 0-.01 1.44q4.38 3.82 6.49-1.95a.9.9 18.2 0 0-.59-1.17M175.82 235.87q-2.4-.35-4.16-.36a2.06 2.06-76.2 0 0-1.85 1.12q-3.61 7.1-10.84 4.31a.86.64 28.6 0 0-.85.12q-.55.62.32 1.25 3.73 2.73 7.6.92 1.04-.48 2.59-1.88 1.57-1.43 2.41-2.08 2.49-1.97 5.63-1.56 5.36.7 9.12-1.89 1.54-1.06 1.89-2.5.45-1.81-.79-3.38-.31-.39-.5.1-2.7 6.97-10.57 5.83" vector-effect="non-scaling-stroke"/>
    <path stroke="#bebebe" d="M227.5 211.29q7.25 4.53 15.5 2.42" vector-effect="non-scaling-stroke"/>
    <path stroke="#777" d="M243 213.71q10.44-.67 16.44-8.02 4.05-4.96 6.1-11.45 1.99-6.27 1.18-12.63-1.64-12.84-11.98-21.6-5.36-4.55-12.08-5.2-3.7-.36-7.83.01-4.23.38-7.64 2.12-12.96 6.6-14.66 19.8-1.06 8.29 1 16.45 2.9 11.51 13.97 18.1" vector-effect="non-scaling-stroke"/>
    <path stroke="#484747" d="M243 213.71q-6.86.24-11.75-1.46-2.73-.95-3.75-.96" vector-effect="non-scaling-stroke"/>
    <path stroke="#999" d="M97.75 254.04q5.37 2.64 11 .5" vector-effect="non-scaling-stroke"/>
    <path stroke="#777" d="M108.75 254.54q16.92-2.54 19.5-19.29Q130 223.9 125.46 213" vector-effect="non-scaling-stroke"/>
    <path stroke="#999" d="M125.46 213q-1.71-4.94-5.21-8.79" vector-effect="non-scaling-stroke"/>
    <path stroke="#777" d="M120.25 204.21q-8.52-9.29-20.85-8.52-3.06.19-5.6 1.37-2.4 1.12-5.05 2.94-5.05 3.46-7.25 8.54-4.12 9.49-2.58 19.42.87 5.6 2.11 9.17 1.6 4.64 5.04 8.15 2.25 2.3 5.43 4.88 2.85 2.32 6.25 3.88" vector-effect="non-scaling-stroke"/>
    <path stroke="#232323" d="M120.25 204.21q-.44.53-.08.9.41.43.45.49 2.36 3.74 4.84 7.4M108.75 254.54l-11-.5" vector-effect="non-scaling-stroke"/>
    <path stroke="#363636" d="M197.69 300q.46-.35.05-.37-14.85-.95-29.74-.63-3.25.07-10-.23a1 .75 13 0 0-.82.36q-.26.39-.24.87" vector-effect="non-scaling-stroke"/>
    <path stroke="#484747" d="m114.25 295.46 4.25-1.17" vector-effect="non-scaling-stroke"/>
  </g>
  <path fill="#101010" d="M0 0h300v64.31l-.61 2.89q-.07.36-.08-.01-.08-2.84-1.04-5.47l-1.04-2.86q-2.6-8.25-5.53-16.38-2.07-5.75-3.79-12.14-1.4-5.19-3.47-12.28-1.37-4.67-3.21-8.54-1.84-3.86-4.11-5.06-3.03-1.6-7.18-.27-10.86 3.46-15.25 5.25-1.71.69-2.78 1.33-2.57 1.55-2.6 1.56-8.78 4.21-16.75 9.75-4.74 3.3-11.18 9.38-8.65 8.18-10.69 9.98-12.53 11.02-20.38 20.68a1.38 1.38-76.3 0 1-.79.48q-6.23 1.24-11.27.9-2.55-.17-4.5.33-2.5.65-2.55.66-18.31 3.44-35.11 11.48-.84.41-3.34 1.13-1.48.43-3.31 1.34-8.45 4.16-14.56 8.01-3.94 2.48-6.72 3.11-6.31 1.42-12.65-.15-1.73-.43-4.62-.79-1.91-.23-4.64-.87-7.5-1.76-19.49-2.57-20.53-1.41-41.01.36l-6.04.71q-2.66-.14-5.29.22-.08.01-3.36.06-2.61.04-3.37 2.91-1.89 7.08-1.09 14.55.32 2.99 2.66 14.16 1.83 8.77 4.61 17.3.21.63 2.31 8.23 1.15 4.15 3.14 8.01 5.53 10.73 11.75 21.08.08.13 5.04 8.7 3.95 6.81 8.08 11.59 3.43 3.98 5.21 8.32 1.16 2.84 1.59 8.95 1.04 14.87 5.45 29.05 1.32 4.22 4.34 10.87 2.42 5.35 4.68 10.77 1.68 4.03 4.33 7.48l-.28.57a1.36 1-2.2 0 1-.74.59q-4.31 1.47-8.73 2.56-1.47.37-2.29 1.53a.36.36-64.1 0 0 .19.56q2.13.64 4.2.2 3.21-.68 3.29-.69 3.49-.47 6.82-1.61 4.06 3.5 8.08 7.03.25.23.75.58 1.69 1.18-1.02 1.03a1.98 1.4 24.5 0 0-.94.18l-12.18 6.47a.38.38-37.1 0 0-.09.61q1.78 1.67 3.84.33 5.74-3.76 11.12-5.7 1.4-.5 2.55-.16 1.29.38 2.39 1.21 1.34 1.67 3.5 1.92 1.86.47.96 1.48-.65.74-.71.82-2.37 3.39-4.79 6.74-.89.79-1.02 1.44-.52 2.55.99 1.44.28-.21.54-.78.42-.92 1.53-1.06 2.92-2.43 4.94-6.35 1.09-2.12 2.49-.58a1.8 1.11-2.6 0 0 .81.45l7.01 1.98q2.87 1.77 6.25 2 .39.15.56.41a1.03.45-55 0 1-.18.89l-3.19 5.41H0V0Z"/>
  <path fill="#fefefe" d="M300 64.31v48q-.9-3.87-.54-7.81.5-2.47.26-5-1.15-12.38-2.59-24.74-1.55-13.3-4.94-22.45-6.44-17.37-9.45-31.13-.81-3.66-1.69-5.04-1.71-2.69-4.71-3.11-2.73-.37-6.89 1.68-5.28 2.61-9.67 6.58-3.56 3.23-3.65 3.31-4.91 4.23-6.44 6.09-14.7 17.82-18.25 21.75-4.72 5.22-7.04 11.42-.85 2.25 1.18 3.53 1.7 1.08 3.54 1.31 2.67.33 2.74.34 13.07 2.9 26.7 9.15 11.44 5.24 20.11 9.9 3.65 1.97 7.66 5.01 3.65 2.77 7.36 5.46 1.52 1.11 5.56 5.98-.32 1.26-1.26 1.13-.56-.08-1.11-.81-6.75-8.85-16.94-14.3-16.78-8.96-32.24-15.53-9.61-4.08-19.91-5.44-2.56-.34-5.98-1.15-2.99-.7-6.06-.98.44-.77 1.5-.5 2.15.53 3.21-1.26 3.95-6.65 8.63-12.78.55-.72 9.62-12.03 4.21-5.24 8.56-10.37 2.27-2.68 5.2-5.31 2.77-2.49 5.49-5.02 4.61-4.28 7.73-6.07 4.24-2.43 9.09-3.96a1.67 1.63-37.2 0 1 1.35.17q1.44.9 2.54-.2a.66.62 51 0 0 .06-.81q-2.34-3.61-6.48-3.07-7.46.98-15.54 4.75-1.88-.03-2.96 1.46-3.55 2.4-4.94 3.1-16.58 8.38-27.12 18.38-9.5 9-19.07 17.93-5.6 5.22-9.61 11.71a.41.4 25.8 0 0 .21.59l4.53 1.62-1.25.42q-11.36-.44-22.69.42-1.41.1-3.09.46-1.54.33-3.09.6-2.54.44-4.54 1.11-23.34 7.8-32.78 12.01-6.11 2.73-15.83 9.5-1.59 1.11-8.39 5.24-3.87 2.35-8.9 6.14-12.24 9.2-19.89 17.16-.08.08-3.23 3.16-3.1 3.03-5.38 7.18-6.22 11.27-10.38 21.62-2.16 5.39-2.92 10.12-1.2 7.47-1.22 7.58-1.23 6.33-1.42 13.24-.05 1.98-.51 4.21-.57 2.75-.6 4.15-.06 2.91.34 5.79.57 4.01.67 5.73.68 11.52 2.77 22.83 1.84 9.99 5.47 19.19 3.63 9.19 8.55 18.66 2.15 4.15 5.06 6.73.17.86.75 1.5 3.88 5.07 9.46 8.21.42.45 1.04.54 4.09 3.31 9.21 4.71l1.75 1.25q.17.26.38.48.2.2.53.28 4.75 1.07 9.3 2.85 5.36 2.1 10.99 2.57 4.18.35 11.18.34 5.56-.02 12.16-1.02 30.15-4.59 53-10.25 18.82-4.67 32.89-10.92 5.81-2.59 7.15-3.14 5.89-2.43 7.27-2.88 6.39-2.04 13.75-6.75 5.34-3.41 15.6-8.43 5.91-2.89 11.38-6.5 4.32-2.85 9.19-7.62 4.28-4.2 8.52-8.45v7.5q-.44-.98-.28-1.88.2-1.18-.66-.36l-10.71 10.21q-.9.85.34 1.04 5.61.85 10.49 4.5.49.36.82-.26v5.25q-.54-1.28-.81-1.5-4.72-3.69-10.49-5.29-4.51-1.24-6.89.04-13.62 7.33-27.11 14.87a.09.09-37.8 0 0-.02.14q8.61 8.21 14.86 17.94.27.42.48-.03 4.18-8.94 14.54-4.93a1.39 1.38-67.7 0 0 1.77-.74q3.75-8.71 13.67-7.5v4.75q-.04-1.79-2.25-1.56-2.56.26-4.29.71-2.08.54-3.58 2.22-2 2.22-1.71 4.28.6 4.41-3.1 1.94-5.69-3.79-10.11-.62-2.36 1.69-1.03 4.27 1.49 2.9 3.48 5.43 2.39 3.04 3.2 4.42 1.38 2.33 2.65 4.8 1.02 1.99 2.26.12 1.89-2.87 2.92-6.19.35-1.15.76-4.33.41-3.17 1.36-4.24 2.67-2.98 6-.62 1.38.97 2.73 3.86.21.44.37-.02l.34-.97V300h-3.31q.93-.54.91-1.55-.01-1.27.01-1.4.7-4.89.14-9.8-.38-3.33-3.23-5.09-1.77-1.09-2.22.95l-2.83 12.76a2.02 1.96-11.2 0 1-.85 1.23q-3.82 2.56-2.13 2.5 1.29-.04 2.45.4h-7.5q2.2-.49.6-1.14a1.62 1.28.7 0 1-.74-.6q-3.76-6.05-7.39-12.18-1.34-2.28-3.64-3.43a1.87 1.54 1.7 0 1-.72-.63q-4.54-7.24-10.07-13.74-4.14-4.86-10.3-5.07-1.63-.06-3.71.8-2.37.97-3.66 1.3-4.12 1.06-7.92 2.88-7.14 3.42-7.59 3.6-19.7 7.9-41.8 12.71-9.42 2.05-22.14 5.78-.11.03-3.27.64-3.83.73-4.72 4.66-.08.36-.7 2.09-.42 1.14.02 2.33h-2.75q1.12-3.9.79-7.94a.55.55 88.3 0 0-.54-.51q-2.32-.04-4.54.47-4.19.97-4.89 1.06-11.58 1.45-23.26 1.21l-3.2-.22a1.05.79 15.8 0 0-.85.33q-.32.43-.2 1.06-1.23 1.32-2.41 2.65-1.05 1.18.1 1.89h-5.5l3.19-5.41a1.03.45-55 0 0 .18-.89q-.17-.26-.56-.41 1.98-.46.03-.75-.23-.04-.55.02-.99.19-1.48-.39a1.3.64 59.9 0 0-.75-.5l-3.5-.38-7.01-1.98a1.8 1.11-2.6 0 1-.81-.45q-1.4-1.54-2.49.58-2.02 3.92-4.94 6.35-1.85.54-2.04-1.04 2.42-3.35 4.79-6.74.06-.08.71-.82.9-1.01-.96-1.48-.97-2.23-3.5-1.92-1.1-.83-2.39-1.21-1.15-.34-2.55.16-5.38 1.94-11.12 5.7-2.06 1.34-3.84-.33a.38.38-37.1 0 1 .09-.61l12.18-6.47a1.98 1.4 24.5 0 1 .94-.18q2.71.15 1.02-1.03-.5-.35-.75-.58-4.02-3.53-8.08-7.03-2.28-1.12-2.46-3.71-2.65-3.45-4.33-7.48-2.26-5.42-4.68-10.77-3.02-6.65-4.34-10.87-4.41-14.18-5.45-29.05-.43-6.11-1.59-8.95-1.78-4.34-5.21-8.32-4.13-4.78-8.08-11.59-4.96-8.57-5.04-8.7-6.22-10.35-11.75-21.08-1.99-3.86-3.14-8.01-2.1-7.6-2.31-8.23-2.78-8.53-4.61-17.3-2.34-11.17-2.66-14.16-.8-7.47 1.09-14.55.76-2.87 3.37-2.91 3.28-.05 3.36-.06 2.63-.36 5.29-.22 3.16.5 6.04-.71 20.48-1.77 41.01-.36 11.99.81 19.49 2.57 2.73.64 4.64.87 2.89.36 4.62.79 6.34 1.57 12.65.15 2.78-.63 6.72-3.11 6.11-3.85 14.56-8.01 1.83-.91 3.31-1.34 2.5-.72 3.34-1.13 16.8-8.04 35.11-11.48.05-.01 2.55-.66 1.95-.5 4.5-.33 5.04.34 11.27-.9a1.38 1.38-76.3 0 0 .79-.48q7.85-9.66 20.38-20.68 2.04-1.8 10.69-9.98 6.44-6.08 11.18-9.38 7.97-5.54 16.75-9.75.03-.01 2.6-1.56 1.07-.64 2.78-1.33 4.39-1.79 15.25-5.25 4.15-1.33 7.18.27 2.27 1.2 4.11 5.06 1.84 3.87 3.21 8.54 2.07 7.09 3.47 12.28 1.72 6.39 3.79 12.14 2.93 8.13 5.53 16.38l1.04 2.86q.96 2.63 1.04 5.47.01.37.08.01l.61-2.89ZM9.21 92q-2.64 5.71.01 11.36.08.18.15.95l.25 2.9q.04.46.09-.01.24-2.05.33.55-.07 1.91.9 7.06 5.19 27.71 18.06 50.45.03.04 2.25 4.19 1.13 2.11 2.5 4.05 2.98 4.21 3.98 5.87 4.6 7.6 10.04 14.22a.85.85 39.3 0 0 1.41-.14q1.3-2.44 1.07-5.2-.16-1.95.42-5.97 1.35-9.28 2.83-18.53.13-.82.58-1.87.41-.95.51-1.85.42-3.74 1.73-7.23 1.94-5.19 1.99-5.33 4.17-12.44 11.4-23.42.05-.07 2.32-2.91 2.56-3.2.68-6.18-1.15-1.82-5.12-4.1-10.4-5.97-24.34-10.61-8.34-2.78-15.56-2.66-1.17.02-3.91.7-1.96.49-4.03.46-3.8-.05-6.75 2.29-1.05.05-2-.33 1.3-3.87 4.5-3.96 5.13-.15 10.19-.94 2.45-.38 7.62.44 3.52.57 7.44 1.66 18.8 5.26 35.43 16.06a2.49 2.48 44.8 0 0 2.71 0q9.78-6.39 18.9-13.61 1.36-1.07 3.25-2.91 1.41-1.38 3.19-2.97.56-.5-.18-.58-5-.57-9.1-1.57-1.57-.38-4.47-.64-2.28-.21-4.46-1-3.8-1.39-7.75-2.15-2.99-.58-7.97-.63-9.94-.11-19.88-.52-8.83-.37-16.33.19-11.34.83-22.66 1.84-1.16.1-1.64.7-.61.74-.58 1.88Z"/>
  <path fill="#454545" d="m217.25 66.96-15-.67-4.5-.5-4.53-1.62a.41.4 25.8 0 1-.21-.59q4.01-6.49 9.61-11.71 9.57-8.93 19.07-17.93 10.54-10 27.12-18.38 1.39-.7 4.94-3.1 1.7-.29 2.96-1.46 8.08-3.77 15.54-4.75 4.14-.54 6.48 3.07a.66.62 51 0 1-.06.81q-1.1 1.1-2.54.2a1.67 1.63-37.2 0 0-1.35-.17q-4.85 1.53-9.09 3.96-3.12 1.79-7.73 6.07-2.72 2.53-5.49 5.02-2.93 2.63-5.2 5.31-4.35 5.13-8.56 10.37-9.07 11.31-9.62 12.03-4.68 6.13-8.63 12.78-1.06 1.79-3.21 1.26Z"/>
  <path fill="#8f8e8e" d="M256.71 11q-1.26 1.17-2.96 1.46 1.08-1.49 2.96-1.46Z"/>
  <path fill="#262626" d="m299.46 104.5-.21.04q-4.04-4.87-5.56-5.98-3.71-2.69-7.36-5.46-4.01-3.04-7.66-5.01-8.67-4.66-20.11-9.9-13.63-6.25-26.7-9.15-.07-.01-2.74-.34-1.84-.23-3.54-1.31-2.03-1.28-1.18-3.53 2.32-6.2 7.04-11.42 3.55-3.93 18.25-21.75 1.53-1.86 6.44-6.09.09-.08 3.65-3.31 4.39-3.97 9.67-6.58 4.16-2.05 6.89-1.68 3 .42 4.71 3.11.88 1.38 1.69 5.04 3.01 13.76 9.45 31.13 3.39 9.15 4.94 22.45 1.44 12.36 2.59 24.74.24 2.53-.26 5Z"/>
  <path fill="#b8b8b7" d="m197.75 65.79 4.5.5q-.96.34-2 .25l-3.75-.33 1.25-.42Z"/>
  <path fill="#454545" d="m196.5 66.21 3.75.33 15.5.92q3.07.28 6.06.98 3.42.81 5.98 1.15 10.3 1.36 19.91 5.44 15.46 6.57 32.24 15.53 10.19 5.45 16.94 14.3.55.73 1.11.81.94.13 1.26-1.13l.21-.04q-.36 3.94.54 7.81v82.75q-.8-.04-.75-1.31.28-7.78-.18-26.68-.01-.51-.01-.01-.3 34.93-.25 52.38.01 1.14 1.19 1.37v5q-4.24 4.25-8.52 8.45-4.87 4.77-9.19 7.62-5.47 3.61-11.38 6.5-10.26 5.02-15.6 8.43-7.36 4.71-13.75 6.75-1.38.45-7.27 2.88-1.34.55-7.15 3.14-14.07 6.25-32.89 10.92-22.85 5.66-53 10.25-6.6 1-12.16 1.02-7 .01-11.18-.34-5.63-.47-10.99-2.57-4.55-1.78-9.3-2.85-.33-.08-.53-.28-.21-.22-.38-.48.51-1.78 2.29-2.17a1.86 1.12 4.7 0 0 .85-.42q2.44-2.46-1.29-1.1-1.8.66-3.6 2.44-5.12-1.4-9.21-4.71 1.41-.41 2.83-.77.64-.16 1.72-.03 1.83.21 1.2-1.58a.86.81-4.7 0 0-.69-.55q-3.72-.49-6.1 2.39-5.58-3.14-9.46-8.21.37.14.71.22.32.06.7-.06 3.81-1.28 7.84-1.43a1.32.95 12.3 0 0 .86-.37q.71-.84-.61-1.15-3.57-.83-10.25 1.29-2.91-2.58-5.06-6.73-4.92-9.47-8.55-18.66-3.63-9.2-5.47-19.19-2.09-11.31-2.77-22.83-.1-1.72-.67-5.73-.4-2.88-.34-5.79.03-1.4.6-4.15.46-2.23.51-4.21.19-6.91 1.42-13.24.02-.11 1.22-7.58.76-4.73 2.92-10.12 4.16-10.35 10.38-21.62 2.28-4.15 5.38-7.18 3.15-3.08 3.23-3.16 7.65-7.96 19.89-17.16 5.03-3.79 8.9-6.14 6.8-4.13 8.39-5.24 9.72-6.77 15.83-9.5 9.44-4.21 32.78-12.01 2-.67 4.54-1.11 1.55-.27 3.09-.6 1.68-.36 3.09-.46 11.33-.86 22.69-.42Zm35 158.33 5.25.42q12.99 1.04 24.81-6.65 2.89-1.88 4.57-2.98 2.11-1.4 3.32-3.54 1.66-2.92 4.61-8.48 2.04-3.84 2.88-7.58.63-2.78 1.11-7.96.95-10.24-3-19.66-1.24-2.98-4-7.06-3.45-5.11-4.74-6.61-4.35-5.08-9-6.75-23.47-8.46-42.07 4.74-6.92 4.91-10.21 10.39-3.75 6.26-4.28 14.43-1.26 19.48 11.88 36.71 1.21 1.59 2.79 2.81 6.57 5.09 16.08 7.77ZM70.79 234q.53 3.79 2.17 7.25 1.53 4.99 5.73 9.81 5.37 6.19 11.22 10.19 2.5 1.71 5.75 2.29 7.89 1.4 14.59 1.21 7.83-.22 14.49-4.01 6.43-3.66 10.38-10.16 5.81-9.57 4.61-21.6-.2-2-.46-4-.14-1.09-.17-3.98-.03-2.81-1.03-5.43-.64-1.68-1.21-3.77-.47-1.71-1.42-3.74-4.33-9.22-10.88-15.62-.83-.82-4.21-2.43-.11-.05-3.5-1.78-4.52-2.31-9.53-2.6-4.63-.26-8.65-.01-4.81.3-8.86 2.69-6.85 4.05-12.4 10.46-2.79 3.23-4.27 6.33-1.66 3.48-2.42 7.34-2.11 10.79.07 21.56Zm100.65-9.17q-2.85-.86-5.89 1.68a.95.94 45.5 0 0-.01 1.44q4.38 3.82 6.49-1.95a.9.9 18.2 0 0-.59-1.17Zm4.38 11.04q-2.4-.35-4.16-.36a2.06 2.06-76.2 0 0-1.85 1.12q-3.61 7.1-10.84 4.31a.86.64 28.6 0 0-.85.12q-.55.62.32 1.25 3.73 2.73 7.6.92 1.04-.48 2.59-1.88 1.57-1.43 2.41-2.08 2.49-1.97 5.63-1.56 5.36.7 9.12-1.89 1.54-1.06 1.89-2.5.45-1.81-.79-3.38-.31-.39-.5.1-2.7 6.97-10.57 5.83Z"/>
  <path fill="#8f8e8e" d="m202.25 66.29 15 .67q-1.06-.27-1.5.5l-15.5-.92q1.04.09 2-.25Z"/>
  <path fill="#b8b8b7" d="M25.75 85.54q-2.88 1.21-6.04.71l6.04-.71Z"/>
  <path fill="#454545" d="M11 100.71q-.82.71-1-.21-.69-3.57-.79-8.5-.03-1.14.58-1.88.48-.6 1.64-.7 11.32-1.01 22.66-1.84 7.5-.56 16.33-.19 9.94.41 19.88.52 4.98.05 7.97.63 3.95.76 7.75 2.15 2.18.79 4.46 1 2.9.26 4.47.64 4.1 1 9.1 1.57.74.08.18.58-1.78 1.59-3.19 2.97-1.89 1.84-3.25 2.91-9.12 7.22-18.9 13.61a2.49 2.48 44.8 0 1-2.71 0q-16.63-10.8-35.43-16.06-3.92-1.09-7.44-1.66-5.17-.82-7.62-.44-5.06.79-10.19.94-3.2.09-4.5 3.96Z"/>
  <path fill="#b8b8b7" d="M9.21 92q.1 4.93.79 8.5.18.92 1 .21.95.38 2 .33-2.44 2.9-2.96 6.71-.09-2.6-.33-.55-.05.47-.09.01l-.25-2.9q-.07-.77-.15-.95Q6.57 97.71 9.21 92Z"/>
  <path fill="#262626" d="M10.04 107.75q.52-3.81 2.96-6.71 2.95-2.34 6.75-2.29 2.07.03 4.03-.46 2.74-.68 3.91-.7 7.22-.12 15.56 2.66 13.94 4.64 24.34 10.61 3.97 2.28 5.12 4.1 1.88 2.98-.68 6.18-2.27 2.84-2.32 2.91-7.23 10.98-11.4 23.42-.05.14-1.99 5.33-1.31 3.49-1.73 7.23-.1.9-.51 1.85-.45 1.05-.58 1.87-1.48 9.25-2.83 18.53-.58 4.02-.42 5.97.23 2.76-1.07 5.2a.85.85 39.3 0 1-1.41.14q-5.44-6.62-10.04-14.22-1-1.66-3.98-5.87-1.37-1.94-2.5-4.05-2.22-4.15-2.25-4.19-12.87-22.74-18.06-50.45-.97-5.15-.9-7.06Z"/>
  <path fill="#fefefe" d="M236.75 224.96q-.67-.56-.56-1.4a.6.55 4.3 0 1 .61-.48q3.32.08 6.63 0 2.46-.05 4.89-1.16 4.91-2.24 9.96-4.11 3.09-1.14 5-2.93 5.27-4.92 8.33-11.33 2.64-5.5 3.21-13.01.48-6.44-.07-13.54-.25-3.2-1.05-5.6-.28-.85-1.43-2.46-.75-1.06-1.46-2.5-2.2-4.51-6.03-9.23-2.56-3.16-7.53-5.46-12.66-5.86-25.05-3.23-8.73 1.85-15.26 6.32-7.08 4.86-10.88 13.22-.8 1.78-1.27 5.26-.17 1.27-.87 5.31-1.17 6.71.83 13.87 2.62 9.4 7.56 16.44 1.49 2.11 1.91 3.82.14.54.4.73.39.27.91.17a1.56.85-24.2 0 1 .92.07q4.38 2.2 8.26 5.17 1.88 1.45 3.4 2.27 1.82.98 3.66 1.93.51.26.75.54.75.87-1.02.9-9.51-2.68-16.08-7.77-1.58-1.22-2.79-2.81-13.14-17.23-11.88-36.71.53-8.17 4.28-14.43 3.29-5.48 10.21-10.39 18.6-13.2 42.07-4.74 4.65 1.67 9 6.75 1.29 1.5 4.74 6.61 2.76 4.08 4 7.06 3.95 9.42 3 19.66-.48 5.18-1.11 7.96-.84 3.74-2.88 7.58-2.95 5.56-4.61 8.48-1.21 2.14-3.32 3.54-1.68 1.1-4.57 2.98-11.82 7.69-24.81 6.65Z"/>
  <path fill="#ededed" d="m236.75 224.96-5.25-.42q1.77-.03 1.02-.9-.24-.28-.75-.54-1.84-.95-3.66-1.93-1.52-.82-3.4-2.27-3.88-2.97-8.26-5.17a1.56.85-24.2 0 0-.92-.07q-.52.1-.91-.17-.26-.19-.4-.73-.42-1.71-1.91-3.82-4.94-7.04-7.56-16.44-2-7.16-.83-13.87.7-4.04.87-5.31.47-3.48 1.27-5.26 3.8-8.36 10.88-13.22 6.53-4.47 15.26-6.32 12.39-2.63 25.05 3.23 4.97 2.3 7.53 5.46 3.83 4.72 6.03 9.23.71 1.44 1.46 2.5 1.15 1.61 1.43 2.46.8 2.4 1.05 5.6.55 7.1.07 13.54-.57 7.51-3.21 13.01-3.06 6.41-8.33 11.33-1.91 1.79-5 2.93-5.05 1.87-9.96 4.11-2.43 1.11-4.89 1.16-3.31.08-6.63 0a.6.55 4.3 0 0-.61.48q-.11.84.56 1.4Zm-9.25-13.67q7.25 4.53 15.5 2.42 10.44-.67 16.44-8.02 4.05-4.96 6.1-11.45 1.99-6.27 1.18-12.63-1.64-12.84-11.98-21.6-5.36-4.55-12.08-5.2-3.7-.36-7.83.01-4.23.38-7.64 2.12-12.96 6.6-14.66 19.8-1.06 8.29 1 16.45 2.9 11.51 13.97 18.1Z"/>
  <path d="M243 213.71q-6.86.24-11.75-1.46-2.73-.95-3.75-.96-11.07-6.59-13.97-18.1-2.06-8.16-1-16.45 1.7-13.2 14.66-19.8 3.41-1.74 7.64-2.12 4.13-.37 7.83-.01 6.72.65 12.08 5.2 10.34 8.76 11.98 21.6.81 6.36-1.18 12.63-2.05 6.49-6.1 11.45-6 7.35-16.44 8.02Z"/>
  <path fill="#454545" d="M300 195.06v25.75q-1.18-.23-1.19-1.37-.05-17.45.25-52.38 0-.5.01.01.46 18.9.18 26.68-.05 1.27.75 1.31Z"/>
  <path fill="#fefefe" d="M72.96 241.25q1.49-.85 2.35.69 6.35 11.25 18.09 17.53 2.81 1.51 6.54 1.97 6.4.8 12.81 1.44.12.01 1.1.18 1.47.26 2.08-.71a4.55 4.53-85.4 0 1 2.08-1.78q13.67-5.88 18.03-18.97.48-1.43.75-4.42.21-2.25.82-4.45a1.78 1.76 44.7 0 0-.01-.96q-.82-2.81-.81-5.69.02-5.05-.08-5.67-.47-3.08-1.65-5.72-.97-2.19-1.09-4.32-.14-2.37-.56-3.13-.81-1.49-2.4-2.33a1.92 1.6 3.6 0 1-.7-.66q-3.23-5.64-5.12-8.44-1.95-2.88-5.63-2.44a1.3 1.2-28.4 0 1-.9-.23q-8.73-6.49-19.66-4.65-6.98 1.17-12.06 4.95-6.28 4.67-11.57 11.94-3.73 5.13-3.37 12.37.12 2.42 0 15.31 0 .56-.26.79-.36.32-.95.15-2.18-10.77-.07-21.56.76-3.86 2.42-7.34 1.48-3.1 4.27-6.33 5.55-6.41 12.4-10.46 4.05-2.39 8.86-2.69 4.02-.25 8.65.01 5.01.29 9.53 2.6 3.39 1.73 3.5 1.78 3.38 1.61 4.21 2.43 6.55 6.4 10.88 15.62.95 2.03 1.42 3.74.57 2.09 1.21 3.77 1 2.62 1.03 5.43.03 2.89.17 3.98.26 2 .46 4 1.2 12.03-4.61 21.6-3.95 6.5-10.38 10.16-6.66 3.79-14.49 4.01-6.7.19-14.59-1.21-3.25-.58-5.75-2.29-5.85-4-11.22-10.19-4.2-4.82-5.73-9.81Z"/>
  <path fill="#ededed" d="M72.96 241.25q-1.64-3.46-2.17-7.25.59.17.95-.15.26-.23.26-.79.12-12.89 0-15.31-.36-7.24 3.37-12.37 5.29-7.27 11.57-11.94 5.08-3.78 12.06-4.95 10.93-1.84 19.66 4.65a1.3 1.2-28.4 0 0 .9.23q3.68-.44 5.63 2.44 1.89 2.8 5.12 8.44a1.92 1.6 3.6 0 0 .7.66q1.59.84 2.4 2.33.42.76.56 3.13.12 2.13 1.09 4.32 1.18 2.64 1.65 5.72.1.62.08 5.67-.01 2.88.81 5.69a1.78 1.76 44.7 0 1 .01.96q-.61 2.2-.82 4.45-.27 2.99-.75 4.42-4.36 13.09-18.03 18.97a4.55 4.53-85.4 0 0-2.08 1.78q-.61.97-2.08.71-.98-.17-1.1-.18-6.41-.64-12.81-1.44-3.73-.46-6.54-1.97-11.74-6.28-18.09-17.53-.86-1.54-2.35-.69Zm24.79 12.79q5.37 2.64 11 .5 16.92-2.54 19.5-19.29Q130 223.9 125.46 213q-1.71-4.94-5.21-8.79-8.52-9.29-20.85-8.52-3.06.19-5.6 1.37-2.4 1.12-5.05 2.94-5.05 3.46-7.25 8.54-4.12 9.49-2.58 19.42.87 5.6 2.11 9.17 1.6 4.64 5.04 8.15 2.25 2.3 5.43 4.88 2.85 2.32 6.25 3.88Z"/>
  <path d="M120.25 204.21q-.44.53-.08.9.41.43.45.49 2.36 3.74 4.84 7.4 4.54 10.9 2.79 22.25-2.58 16.75-19.5 19.29l-11-.5q-3.4-1.56-6.25-3.88-3.18-2.58-5.43-4.88-3.44-3.51-5.04-8.15-1.24-3.57-2.11-9.17-1.54-9.93 2.58-19.42 2.2-5.08 7.25-8.54 2.65-1.82 5.05-2.94 2.54-1.18 5.6-1.37 12.33-.77 20.85 8.52Z"/>
  <path fill="#454545" d="M120.25 204.21q3.5 3.85 5.21 8.79-2.48-3.66-4.84-7.4-.04-.06-.45-.49-.36-.37.08-.9Z"/>
  <path fill="#8f8e8e" d="M227.5 211.29q1.02.01 3.75.96 4.89 1.7 11.75 1.46-8.25 2.11-15.5-2.42Z"/>
  <path fill="#ededed" d="M171.44 224.83a.9.9 18.2 0 1 .59 1.17q-2.11 5.77-6.49 1.95a.95.94 45.5 0 1 .01-1.44q3.04-2.54 5.89-1.68ZM175.82 235.87q7.87 1.14 10.57-5.83.19-.49.5-.1 1.24 1.57.79 3.38-.35 1.44-1.89 2.5-3.76 2.59-9.12 1.89-3.14-.41-5.63 1.56-.84.65-2.41 2.08-1.55 1.4-2.59 1.88-3.87 1.81-7.6-.92-.87-.63-.32-1.25a.86.64 28.6 0 1 .85-.12q7.23 2.79 10.84-4.31a2.06 2.06-76.2 0 1 1.85-1.12q1.76.01 4.16.36Z"/>
  <path fill="#101010" d="M300 233.31v13.25q-.33.62-.82.26-4.88-3.65-10.49-4.5-1.24-.19-.34-1.04l10.71-10.21q.86-.82.66.36-.16.9.28 1.88Z"/>
  <path d="M300 251.81v13q-9.92-1.21-13.67 7.5a1.39 1.38-67.7 0 1-1.77.74q-10.36-4.01-14.54 4.93-.21.45-.48.03-6.25-9.73-14.86-17.94a.09.09-37.8 0 1 .02-.14q13.49-7.54 27.11-14.87 2.38-1.28 6.89-.04 5.77 1.6 10.49 5.29.27.22.81 1.5Z"/>
  <path fill="#454545" d="m97.75 254.04 11 .5q-5.63 2.14-11-.5ZM281.44 300h-83.75q.46-.35.05-.37-14.85-.95-29.74-.63-3.25.07-10-.23a1 .75 13 0 0-.82.36q-.26.39-.24.87h-3.25q-.44-1.19-.02-2.33.62-1.73.7-2.09.89-3.93 4.72-4.66 3.16-.61 3.27-.64 12.72-3.73 22.14-5.78 22.1-4.81 41.8-12.71.45-.18 7.59-3.6 3.8-1.82 7.92-2.88 1.29-.33 3.66-1.3 2.08-.86 3.71-.8 6.16.21 10.3 5.07 5.53 6.5 10.07 13.74a1.87 1.54 1.7 0 0 .72.63q2.3 1.15 3.64 3.43 3.63 6.13 7.39 12.18a1.62 1.28.7 0 0 .74.6q1.6.65-.6 1.14Z"/>
  <path fill="#8f8e8e" d="M75.25 270.54q-.58-.64-.75-1.5 6.68-2.12 10.25-1.29 1.32.31.61 1.15a1.32.95 12.3 0 1-.86.37q-4.03.15-7.84 1.43-.38.12-.7.06-.34-.08-.71-.22Z"/>
  <path fill="#101010" d="M300 269.56v13.5l-.34.97q-.16.46-.37.02-1.35-2.89-2.73-3.86-3.33-2.36-6 .62-.95 1.07-1.36 4.24-.41 3.18-.76 4.33-1.03 3.32-2.92 6.19-1.24 1.87-2.26-.12-1.27-2.47-2.65-4.8-.81-1.38-3.2-4.42-1.99-2.53-3.48-5.43-1.33-2.58 1.03-4.27 4.42-3.17 10.11.62 3.7 2.47 3.1-1.94-.29-2.06 1.71-4.28 1.5-1.68 3.58-2.22 1.73-.45 4.29-.71 2.21-.23 2.25 1.56Z"/>
  <path fill="#b8b8b7" d="M69.79 268.5q.18 2.59 2.46 3.71-3.33 1.14-6.82 1.61-.08.01-3.29.69-2.07.44-4.2-.2a.36.36-64.1 0 1-.19-.56q.82-1.16 2.29-1.53 4.42-1.09 8.73-2.56a1.36 1-2.2 0 0 .74-.59l.28-.57Z"/>
  <path fill="#8f8e8e" d="M85.75 279.29q-.62-.09-1.04-.54 2.38-2.88 6.1-2.39a.86.81-4.7 0 1 .69.55q.63 1.79-1.2 1.58-1.08-.13-1.72.03-1.42.36-2.83.77Z"/>
  <path fill="#b8b8b7" d="M96.71 285.25 94.96 284q1.8-1.78 3.6-2.44 3.73-1.36 1.29 1.1a1.86 1.12 4.7 0 1-.85.42q-1.78.39-2.29 2.17Z"/>
  <path fill="#454545" d="M296.69 300h-7.75q-1.16-.44-2.45-.4-1.69.06 2.13-2.5a2.02 1.96-11.2 0 0 .85-1.23l2.83-12.76q.45-2.04 2.22-.95 2.85 1.76 3.23 5.09.56 4.91-.14 9.8-.02.13-.01 1.4.02 1.01-.91 1.55Z"/>
  <path fill="#8f8e8e" d="M86.75 283.79q2.53-.31 3.5 1.92-2.16-.25-3.5-1.92Z"/>
  <path fill="#b8b8b7" d="m103 291.29 3.5.38a1.3.64 59.9 0 1 .75.5q.49.58 1.48.39.32-.06.55-.02 1.95.29-.03.75-3.38-.23-6.25-2Z"/>
  <path d="M150.94 300h-39q-1.15-.71-.1-1.89 1.18-1.33 2.41-2.65l4.25-1.17q11.68.24 23.26-1.21.7-.09 4.89-1.06 2.22-.51 4.54-.47a.55.55 88.3 0 1 .54.51q.33 4.04-.79 7.94Z"/>
  <path fill="#8f8e8e" d="m118.5 294.29-4.25 1.17q-.12-.63.2-1.06a1.05.79 15.8 0 1 .85-.33l3.2.22Z"/>
  <path fill="#b8b8b7" d="M85.71 294.75q.19 1.58 2.04 1.04-1.11.14-1.53 1.06-.26.57-.54.78-1.51 1.11-.99-1.44.13-.65 1.02-1.44Z"/>
  <path fill="#262626" d="M197.69 300h-40.75q-.02-.48.24-.87a1 .75 13 0 1 .82-.36q6.75.3 10 .23 14.89-.32 29.74.63.41.02-.05.37Z"/>
</svg>
